<svg width="24" height="25" viewBox="0 0 24 25" fill="none" xmlns="http://www.w3.org/2000/svg">
<path d="M4.26134 19.8133C5.39467 18.9973 6.59734 18.3524 7.86934 17.8787C9.14045 17.404 10.5173 17.1667 12 17.1667C13.4827 17.1667 14.8596 17.404 16.1307 17.8787C17.4018 18.3533 18.6044 18.9978 19.7387 19.812C20.6187 18.9009 21.3267 17.8253 21.8627 16.5853C22.3987 15.3436 22.6667 13.9818 22.6667 12.5C22.6667 9.54445 21.628 7.02756 19.5507 4.94933C17.4733 2.87111 14.9564 1.83244 12 1.83333C9.04356 1.83422 6.52667 2.87333 4.44934 4.95067C2.372 7.028 1.33334 9.54445 1.33334 12.5C1.33334 13.9818 1.60134 15.3436 2.13734 16.5853C2.67334 17.8262 3.38134 18.9018 4.26134 19.812M12.0013 13.1667C10.8778 13.1667 9.92978 12.7809 9.15734 12.0093C8.38489 11.2378 7.99911 10.2907 8 9.168C8.00089 8.04533 8.38667 7.09733 9.15734 6.324C9.928 5.55067 10.8756 5.16489 12 5.16667C13.1244 5.16844 14.072 5.55422 14.8427 6.324C15.6133 7.09378 15.9991 8.04133 16 9.16667C16.0009 10.292 15.6151 11.2396 14.8427 12.0093C14.0702 12.7791 13.1231 13.1649 12.0013 13.1667ZM12 24.5C10.3262 24.5 8.75956 24.1884 7.3 23.5653C5.84045 22.9422 4.57022 22.0907 3.48934 21.0107C2.40845 19.9307 1.55689 18.6604 0.934669 17.2C0.312446 15.7396 0.000890786 14.1729 1.89663e-06 12.5C-0.000886992 10.8271 0.310669 9.26045 0.934669 7.8C1.55867 6.33956 2.41022 5.06933 3.48934 3.98933C4.57022 2.90933 5.84045 2.05778 7.3 1.43467C8.75956 0.811556 10.3262 0.5 12 0.5C13.6738 0.5 15.2404 0.811556 16.7 1.43467C18.1596 2.05778 19.4298 2.90933 20.5107 3.98933C21.5916 5.06933 22.4431 6.33956 23.0653 7.8C23.6876 9.26045 23.9991 10.8271 24 12.5C24.0009 14.1729 23.6893 15.7396 23.0653 17.2C22.4413 18.6604 21.5898 19.9307 20.5107 21.0107C19.4298 22.0907 18.1596 22.9422 16.7 23.5653C15.2404 24.1884 13.6738 24.5 12 24.5ZM12 23.1667C13.2293 23.1667 14.4387 22.9516 15.628 22.5213C16.8173 22.092 17.8453 21.5036 18.712 20.756C17.8462 20.06 16.844 19.5102 15.7053 19.1067C14.5667 18.7031 13.3316 18.5009 12 18.5C10.6684 18.4991 9.42889 18.6969 8.28134 19.0933C7.13378 19.4898 6.13556 20.044 5.28667 20.756C6.15334 21.5027 7.18178 22.0911 8.372 22.5213C9.56222 22.9516 10.7716 23.1667 12 23.1667ZM12 11.8333C12.7484 11.8333 13.38 11.576 13.8947 11.0613C14.4093 10.5467 14.6667 9.91511 14.6667 9.16667C14.6667 8.41822 14.4093 7.78667 13.8947 7.272C13.38 6.75733 12.7484 6.5 12 6.5C11.2516 6.5 10.62 6.75733 10.1053 7.272C9.59067 7.78667 9.33334 8.41822 9.33334 9.16667C9.33334 9.91511 9.59067 10.5467 10.1053 11.0613C10.62 11.576 11.2516 11.8333 12 11.8333Z" fill="#49159B"/>
</svg>
