<svg width="14" height="10" viewBox="0 0 14 10" fill="none" xmlns="http://www.w3.org/2000/svg">
<path d="M13.2757 0.341763C13.5166 0.569445 13.6571 0.883453 13.6665 1.21474C13.6759 1.54604 13.5533 1.86749 13.3257 2.10843L6.24239 9.60843C6.12759 9.72977 5.98963 9.82686 5.83667 9.89398C5.68371 9.9611 5.51885 9.99688 5.35183 9.99921C5.18481 10.0015 5.01902 9.97037 4.86424 9.90755C4.70947 9.84472 4.56886 9.75151 4.45072 9.63343L0.700721 5.88343C0.479921 5.64647 0.359715 5.33306 0.365429 5.00923C0.371143 4.68539 0.502329 4.37641 0.731351 4.14739C0.960373 3.91837 1.26935 3.78719 1.59318 3.78147C1.91702 3.77576 2.23043 3.89596 2.46739 4.11676L5.30905 6.95676L11.5091 0.391763C11.7367 0.150925 12.0507 0.0103654 12.382 0.000989187C12.7133 -0.00838699 13.0348 0.114188 13.2757 0.341763Z" fill="#008000"/>
</svg>
