<svg width="32" height="32" viewBox="0 0 32 32" fill="none" xmlns="http://www.w3.org/2000/svg">
<rect width="32" height="32" rx="16" fill="#F4F4F4"/>
<path fill-rule="evenodd" clip-rule="evenodd" d="M19.9727 11.9292C19.6652 11.9292 19.4102 11.6742 19.4102 11.3667V10.4487C18.8297 10.4292 18.1479 10.4292 17.3477 10.4292H15.8477C15.0467 10.4292 14.3657 10.4292 13.7852 10.4487V11.3667C13.7852 11.6742 13.5302 11.9292 13.2227 11.9292C12.9152 11.9292 12.6602 11.6742 12.6602 11.3667V10.5297C11.9514 10.6219 11.4647 10.7997 11.1227 11.1417C10.6712 11.5932 10.5062 12.2967 10.4454 13.4292H22.7499C22.6892 12.2967 22.5234 11.5932 22.0727 11.1417C21.7307 10.7997 21.2439 10.6219 20.5352 10.5297V11.3667C20.5352 11.6742 20.2802 11.9292 19.9727 11.9292ZM22.7807 14.5542C22.7847 14.9507 22.7862 15.3882 22.7852 15.8667V16.6167C22.7852 16.9242 23.0402 17.1792 23.3477 17.1792C23.6552 17.1792 23.9102 16.9242 23.9102 16.6167V15.8667C23.9102 12.8817 23.9102 11.3892 22.8677 10.3467C22.2887 9.7677 21.5702 9.51045 20.5352 9.3957V8.7417C20.5352 8.4342 20.2802 8.1792 19.9727 8.1792C19.6652 8.1792 19.4102 8.4342 19.4102 8.7417V9.32295C18.8132 9.3042 18.1314 9.3042 17.3477 9.3042H15.8477C15.0632 9.3042 14.3822 9.3042 13.7852 9.32295V8.7417C13.7852 8.4342 13.5302 8.1792 13.2227 8.1792C12.9152 8.1792 12.6602 8.4342 12.6602 8.7417V9.3957C11.6252 9.51045 10.9067 9.7677 10.3277 10.3467C9.28516 11.3892 9.28516 12.8892 9.28516 15.8667V17.3667C9.28516 20.3517 9.28516 21.8442 10.3277 22.8867C11.3702 23.9292 12.8627 23.9292 15.8477 23.9292C16.1552 23.9292 16.4102 23.6742 16.4102 23.3667C16.4102 23.0592 16.1552 22.8042 15.8477 22.8042C13.1777 22.8042 11.8352 22.8042 11.1227 22.0917C10.4102 21.3792 10.4102 20.0367 10.4102 17.3667V15.8667C10.4097 15.3887 10.4109 14.9512 10.4139 14.5542H22.7807ZM20.3477 24.3042C18.3827 24.3042 16.7852 22.7067 16.7852 20.7417C16.7852 18.7767 18.3827 17.1792 20.3477 17.1792C22.3127 17.1792 23.9102 18.7767 23.9102 20.7417C23.9102 22.7067 22.3127 24.3042 20.3477 24.3042ZM20.3477 18.3042C19.0052 18.3042 17.9102 19.3992 17.9102 20.7417C17.9102 22.0842 19.0052 23.1792 20.3477 23.1792C21.6902 23.1792 22.7852 22.0842 22.7852 20.7417C22.7852 19.3992 21.6902 18.3042 20.3477 18.3042ZM20.7002 21.8892C20.8127 22.0017 20.9552 22.0542 21.0977 22.0542C21.2402 22.0542 21.3827 22.0017 21.4952 21.8892C21.7127 21.6717 21.7127 21.3117 21.4952 21.0942L20.9102 20.5092V19.2417C20.9102 18.9342 20.6552 18.6792 20.3477 18.6792C20.0402 18.6792 19.7852 18.9342 19.7852 19.2417V20.7417C19.7852 20.8917 19.8452 21.0342 19.9502 21.1392L20.7002 21.8892Z" fill="#49159B"/>
</svg>
