<svg width="33" height="33" viewBox="0 0 33 33" fill="none" xmlns="http://www.w3.org/2000/svg">
<rect x="0.5" y="0.5" width="32" height="32" rx="16" fill="#F4F4F4"/>
<path fill-rule="evenodd" clip-rule="evenodd" d="M11.7998 9.03247C12.7125 8.12497 14.2155 8.28622 14.9798 9.30772L15.9263 10.5707C16.5488 11.4017 16.4933 12.5627 15.7545 13.297L15.576 13.4755C15.5558 13.5504 15.5537 13.6291 15.57 13.705C15.6173 14.011 15.873 14.659 16.944 15.724C18.015 16.789 18.6675 17.044 18.978 17.092C19.0563 17.1077 19.1371 17.1054 19.2143 17.0852L19.5203 16.7807C20.1773 16.1282 21.1853 16.006 21.9983 16.4477L23.4308 17.2277C24.6585 17.8937 24.9683 19.5617 23.9633 20.5615L22.8975 21.6205C22.5615 21.9542 22.11 22.2325 21.5595 22.2842C20.202 22.411 17.0393 22.249 13.7145 18.9437C10.6118 15.8582 10.0163 13.1672 9.94052 11.8412C9.90302 11.1707 10.2195 10.6037 10.623 10.2032L11.7998 9.03247ZM14.0798 9.98197C13.6995 9.47422 12.9915 9.43372 12.5925 9.83047L11.415 11.0005C11.1675 11.2465 11.049 11.518 11.064 11.7775C11.124 12.8312 11.604 15.259 14.508 18.1465C17.5545 21.175 20.3678 21.2657 21.4553 21.1637C21.6773 21.1435 21.8978 21.028 22.104 20.8232L23.169 19.7635C23.6025 19.333 23.5073 18.5485 22.8938 18.2155L21.4613 17.4362C21.0653 17.2217 20.6018 17.2922 20.3138 17.5787L19.9725 17.9185L19.575 17.5195C19.9725 17.9185 19.9718 17.9192 19.971 17.9192L19.9703 17.9207L19.968 17.923L19.9628 17.9275L19.9515 17.938C19.9199 17.9674 19.8857 17.994 19.8495 18.0175C19.7895 18.0572 19.71 18.1015 19.6103 18.1382C19.4078 18.214 19.1393 18.2545 18.8078 18.2035C18.1575 18.1037 17.2958 17.6605 16.1505 16.522C15.006 15.3835 14.559 14.527 14.4585 13.8775C14.4068 13.546 14.448 13.2775 14.5245 13.075C14.5666 12.961 14.6269 12.8546 14.703 12.76L14.727 12.7337L14.7375 12.7225L14.742 12.718L14.7443 12.7157L14.7458 12.7142L14.9618 12.4997C15.2828 12.1795 15.3278 11.6492 15.0255 11.245L14.0798 9.98197Z" fill="#49159B"/>
</svg>
