<svg width="26" height="26" viewBox="0 0 26 26" fill="none" xmlns="http://www.w3.org/2000/svg">
<path d="M7.50803 17.3532C7.54305 17.4798 7.60266 17.5983 7.68346 17.7018C7.76426 17.8054 7.86467 17.892 7.97894 17.9568C8.09322 18.0215 8.21913 18.0631 8.34949 18.0792C8.47985 18.0953 8.61211 18.0856 8.7387 18.0505C8.86529 18.0155 8.98375 17.9559 9.08731 17.8751C9.19086 17.7943 9.27749 17.6939 9.34225 17.5796C9.407 17.4654 9.44861 17.3394 9.4647 17.2091C9.48079 17.0787 9.47105 16.9465 9.43603 16.8199L7.50803 17.3532ZM1.7667 3.29987C1.63961 3.26275 1.50641 3.25124 1.37483 3.266C1.24325 3.28076 1.11592 3.32151 1.00021 3.38587C0.884508 3.45023 0.782735 3.53693 0.700801 3.64094C0.618867 3.74494 0.558402 3.86419 0.522915 3.99174C0.487429 4.1193 0.477626 4.25264 0.494077 4.38401C0.510528 4.51539 0.552904 4.64219 0.618747 4.75706C0.684591 4.87193 0.77259 4.97258 0.877639 5.05317C0.982688 5.13377 1.1027 5.1927 1.2307 5.22654L1.7667 3.29987ZM24.4174 17.9665C24.5476 17.9364 24.6704 17.8805 24.7787 17.8021C24.8869 17.7237 24.9783 17.6244 25.0475 17.5101C25.1168 17.3958 25.1623 17.2687 25.1816 17.1365C25.2009 17.0043 25.1935 16.8695 25.1598 16.7402C25.1261 16.6108 25.0668 16.4896 24.9855 16.3835C24.9041 16.2775 24.8023 16.1888 24.6861 16.1228C24.5699 16.0568 24.4417 16.0147 24.309 15.9991C24.1762 15.9835 24.0417 15.9946 23.9134 16.0319L24.4174 17.9665ZM11.096 20.4119C11.5094 21.9052 10.6027 23.4825 8.99737 23.8999L9.50003 25.8345C12.136 25.1505 13.7467 22.4985 13.024 19.8785L11.096 20.4119ZM8.99737 23.8999C7.38137 24.3199 5.76003 23.3812 5.34403 21.8745L3.41603 22.4079C4.13603 25.0145 6.8747 26.5172 9.50003 25.8345L8.99737 23.8999ZM5.34403 21.8745C4.9307 20.3812 5.83737 18.8039 7.4427 18.3865L6.94003 16.4532C4.30403 17.1372 2.69203 19.7879 3.41603 22.4079L5.34403 21.8745ZM7.4427 18.3865C9.0587 17.9665 10.68 18.9052 11.096 20.4119L13.024 19.8785C12.304 17.2719 9.56537 15.7692 6.94003 16.4519L7.4427 18.3865ZM9.43603 16.8199L6.5667 6.43321L4.6387 6.96654L7.50803 17.3532L9.43603 16.8199ZM4.0387 3.92921L1.7667 3.29987L1.2307 5.22654L3.50403 5.85721L4.0387 3.92921ZM6.5667 6.43321C6.39717 5.83319 6.07527 5.28724 5.63228 4.84847C5.1893 4.40969 4.64031 4.093 4.0387 3.92921L3.5067 5.85721C4.07337 6.01454 4.4947 6.44521 4.6387 6.96654L6.5667 6.43321ZM12.3134 21.1132L24.4174 17.9665L23.9147 16.0319L11.8094 19.1785L12.3134 21.1132Z" fill="#49159B"/>
<path d="M10.2536 8.63998C9.60692 6.29998 9.28425 5.12931 9.83359 4.20798C10.3816 3.28531 11.5883 2.97198 14.0016 2.34398L16.5616 1.67998C18.9749 1.05331 20.1816 0.738645 21.1323 1.27064C22.0829 1.80398 22.4069 2.97331 23.0523 5.31464L23.7389 7.79731C24.3856 10.1373 24.7096 11.308 24.1603 12.2306C23.6109 13.152 22.4043 13.4666 19.9909 14.0933L17.4309 14.7586C15.0176 15.3853 13.8109 15.6986 12.8603 15.1666C11.9096 14.6333 11.5869 13.464 10.9403 11.124L10.2536 8.63998Z" stroke="#49159B" stroke-width="1.5"/>
</svg>
