<svg width="30" height="27" viewBox="0 0 30 27" fill="none" xmlns="http://www.w3.org/2000/svg">
<path d="M12.3332 17.9999L16.3332 19.3333C16.3332 19.3333 26.3332 17.3333 27.6665 17.3333C28.9998 17.3333 28.9998 18.6666 27.6665 19.9999C26.3332 21.3333 21.6665 25.3333 17.6665 25.3333C13.6665 25.3333 10.9998 23.3333 8.33317 23.3333H1.6665" stroke="#49159B" stroke-width="1.5" stroke-linecap="round" stroke-linejoin="round"/>
<path d="M1.6665 15.3333C2.99984 13.9999 5.6665 11.9999 8.33317 11.9999C10.9998 11.9999 17.3332 14.6666 18.3332 15.9999C19.3332 17.3333 16.3332 19.3333 16.3332 19.3333M9.6665 7.99992V2.66659C9.6665 2.31296 9.80698 1.97383 10.057 1.72378C10.3071 1.47373 10.6462 1.33325 10.9998 1.33325H26.9998C27.3535 1.33325 27.6926 1.47373 27.9426 1.72378C28.1927 1.97383 28.3332 2.31296 28.3332 2.66659V13.3333" stroke="#49159B" stroke-width="1.5" stroke-linecap="round" stroke-linejoin="round"/>
<path d="M15.6665 1.33325H22.3332V7.33325H15.6665V1.33325Z" stroke="#49159B" stroke-width="1.5" stroke-linecap="round" stroke-linejoin="round"/>
</svg>
