<svg width="32" height="32" viewBox="0 0 32 32" fill="none" xmlns="http://www.w3.org/2000/svg">
<rect width="32" height="32" rx="16" fill="#F4F4F4"/>
<path d="M10.75 21.2503H13.75M18.25 21.2503H21.25M16.0277 17.9623V13.4758L19.75 11.4553M16.0525 13.4518L12.2815 11.4553M16 9.24805L19.7748 11.4275V15.7865L16 17.9653L12.2253 15.7858V11.4275L16 9.24805ZM17.5 21.2503C17.5 21.6481 17.342 22.0297 17.0607 22.311C16.7794 22.5923 16.3978 22.7503 16 22.7503C15.6022 22.7503 15.2206 22.5923 14.9393 22.311C14.658 22.0297 14.5 21.6481 14.5 21.2503C14.5 20.8525 14.658 20.4709 14.9393 20.1896C15.2206 19.9083 15.6022 19.7503 16 19.7503C16.3978 19.7503 16.7794 19.9083 17.0607 20.1896C17.342 20.4709 17.5 20.8525 17.5 21.2503Z" stroke="#49159B" stroke-width="0.8" stroke-linecap="round"/>
</svg>
