<svg width="32" height="32" viewBox="0 0 32 32" fill="none" xmlns="http://www.w3.org/2000/svg">
<path d="M9.56445 12V16H10.9445C12.1305 16 12.7165 15.282 12.7165 13.996C12.7165 12.71 12.1385 12 10.9445 12H9.56445ZM10.2305 12.56H10.8705C11.6605 12.56 12.0345 13.04 12.0345 14.004C12.0345 14.964 11.6625 15.44 10.8725 15.44H10.2305V12.56ZM15.6385 15.44H13.8025V14.236H15.5285V13.7H13.8025V12.56H15.6365V12H13.1405V16H15.6385V15.44ZM16.7845 14.892L16.4305 16H15.7505L17.1265 12H17.8685L19.2465 16H18.5425L18.1885 14.892H16.7845ZM18.0385 14.382L17.5025 12.692H17.4725L16.9325 14.382H18.0385ZM19.4905 12V16H20.8705C22.0565 16 22.6425 15.282 22.6425 13.996C22.6425 12.71 22.0625 12 20.8705 12H19.4905ZM20.1565 12.56H20.7965C21.5845 12.56 21.9605 13.04 21.9605 14.004C21.9605 14.964 21.5885 15.44 20.7965 15.44H20.1565V12.56ZM11.8105 21.44H13.6445V22H11.1485V18H13.6445V18.56H11.8105V19.7H13.5365V20.236H11.8105V21.44ZM14.7885 22V19.12H14.8145L16.6865 22H17.2705V18H16.6305V20.872H16.6025L14.7365 18H14.1505V22H14.7885ZM17.9085 22V18H19.2885C20.4805 18 21.0605 18.71 21.0605 19.996C21.0605 21.282 20.4745 22 19.2885 22H17.9085ZM19.2145 18.56H18.5745V21.44H19.2145C20.0045 21.44 20.3765 20.962 20.3765 20.004C20.3765 19.042 20.0025 18.56 19.2145 18.56Z" fill="#49159B"/>
<path d="M18.098 0.87C16.938 -0.29 15.058 -0.29 13.898 0.87L0.87 13.9C-0.29 15.06 -0.29 16.938 0.87 18.096L13.902 31.128C15.062 32.288 16.94 32.288 18.098 31.128L31.13 18.096C32.29 16.936 32.29 15.058 31.13 13.9L18.098 0.87ZM15.298 2.27C15.4837 2.08436 15.7355 1.98007 15.998 1.98007C16.2605 1.98007 16.5123 2.08436 16.698 2.27L29.73 15.3C29.9156 15.4857 30.0199 15.7375 30.0199 16C30.0199 16.2625 29.9156 16.5143 29.73 16.7L16.698 29.732C16.5123 29.9176 16.2605 30.0219 15.998 30.0219C15.7355 30.0219 15.4837 29.9176 15.298 29.732L2.266 16.7C2.08036 16.5143 1.97607 16.2625 1.97607 16C1.97607 15.7375 2.08036 15.4857 2.266 15.3L15.298 2.268V2.27Z" fill="#49159B"/>
</svg>
