<svg width="33" height="33" viewBox="0 0 33 33" fill="none" xmlns="http://www.w3.org/2000/svg">
<rect x="0.5" y="0.5" width="32" height="32" rx="16" fill="#F4F4F4"/>
<path d="M16.5 9C12.3577 9 9 12.3577 9 16.5C9 20.6422 12.3577 24 16.5 24C20.6422 24 24 20.6422 24 16.5C24 12.3577 20.6422 9 16.5 9Z" stroke="#49159B" stroke-linecap="round" stroke-linejoin="round"/>
<path d="M10.7031 21.2595C10.7031 21.2595 12.3749 19.125 16.4999 19.125C20.6249 19.125 22.2974 21.2595 22.2974 21.2595M16.4999 16.5C17.0966 16.5 17.6689 16.2629 18.0909 15.841C18.5128 15.419 18.7499 14.8467 18.7499 14.25C18.7499 13.6533 18.5128 13.081 18.0909 12.659C17.6689 12.2371 17.0966 12 16.4999 12C15.9031 12 15.3308 12.2371 14.9089 12.659C14.4869 13.081 14.2499 13.6533 14.2499 14.25C14.2499 14.8467 14.4869 15.419 14.9089 15.841C15.3308 16.2629 15.9031 16.5 16.4999 16.5Z" stroke="#49159B" stroke-linecap="round" stroke-linejoin="round"/>
</svg>
