<svg width="33" height="33" viewBox="0 0 33 33" fill="none" xmlns="http://www.w3.org/2000/svg">
<rect x="0.5" y="0.5" width="32" height="32" rx="16" fill="#F4F4F4"/>
<path d="M16.9198 23.115C16.7974 23.2029 16.6505 23.2502 16.4998 23.2502C16.3491 23.2502 16.2022 23.2029 16.0798 23.115C12.4581 20.5335 8.61434 15.2235 12.5001 11.3865C13.5668 10.3371 15.0035 9.74934 16.4998 9.75C17.9998 9.75 19.4391 10.3388 20.4996 11.3858C24.3853 15.2228 20.5416 20.532 16.9198 23.115Z" stroke="#49159B" stroke-width="1.125" stroke-linecap="round" stroke-linejoin="round"/>
<path d="M16.5 16.5C16.8978 16.5 17.2794 16.342 17.5607 16.0607C17.842 15.7794 18 15.3978 18 15C18 14.6022 17.842 14.2206 17.5607 13.9393C17.2794 13.658 16.8978 13.5 16.5 13.5C16.1022 13.5 15.7206 13.658 15.4393 13.9393C15.158 14.2206 15 14.6022 15 15C15 15.3978 15.158 15.7794 15.4393 16.0607C15.7206 16.342 16.1022 16.5 16.5 16.5Z" stroke="#49159B" stroke-width="1.125" stroke-linecap="round" stroke-linejoin="round"/>
</svg>
