<svg width="27" height="26" viewBox="0 0 27 26" fill="none" xmlns="http://www.w3.org/2000/svg">
<path d="M4.6665 0H12.6665C13.7274 0 14.7448 0.421427 15.4949 1.17157C16.2451 1.92172 16.6665 2.93913 16.6665 4V9.33333H15.3332V4C15.3332 3.29276 15.0522 2.61448 14.5521 2.11438C14.052 1.61428 13.3737 1.33333 12.6665 1.33333H4.6665C3.95926 1.33333 3.28098 1.61428 2.78089 2.11438C2.28079 2.61448 1.99984 3.29276 1.99984 4V21.3333C1.99984 22.0406 2.28079 22.7189 2.78089 23.219C3.28098 23.719 3.95926 24 4.6665 24H12.6665C13.3737 24 14.052 23.719 14.5521 23.219C15.0522 22.7189 15.3332 22.0406 15.3332 21.3333V16H16.6665V21.3333C16.6665 22.3942 16.2451 23.4116 15.4949 24.1618C14.7448 24.9119 13.7274 25.3333 12.6665 25.3333H4.6665C3.60564 25.3333 2.58822 24.9119 1.83808 24.1618C1.08793 23.4116 0.666504 22.3942 0.666504 21.3333V4C0.666504 2.93913 1.08793 1.92172 1.83808 1.17157C2.58822 0.421427 3.60564 0 4.6665 0ZM8.6665 12H23.6665L19.3332 7.66667L20.2132 6.66667L26.2132 12.6667L20.2132 18.6667L19.3332 17.6667L23.6665 13.3333H8.6665V12Z" fill="#49159B"/>
</svg>
