<svg width="29" height="23" viewBox="0 0 29 23" fill="none" xmlns="http://www.w3.org/2000/svg">
<path d="M6.21972 3.22667C6.45346 3.34377 6.72376 3.36469 6.97272 3.28494C7.22169 3.20519 7.42953 3.03112 7.55172 2.8L7.55439 2.79467L7.60239 2.72533C7.68146 2.62218 7.7728 2.52905 7.87439 2.448C8.12772 2.24533 8.57572 2 9.33306 2C9.98906 2 10.3731 2.316 10.5224 2.61333C10.6597 2.88933 10.6597 3.25867 10.2931 3.62667C10.0331 3.88533 9.69839 4.11067 9.27172 4.35733C9.1535 4.42578 9.02461 4.49867 8.88506 4.576C8.56506 4.756 8.20239 4.95867 7.88106 5.16933C6.87172 5.828 5.88906 6.784 5.67439 8.54533C5.65722 8.6858 5.67006 8.82831 5.71206 8.96345C5.75405 9.09859 5.82426 9.22327 5.91802 9.32926C6.01179 9.43525 6.12698 9.52013 6.25599 9.5783C6.38499 9.63646 6.52488 9.66658 6.66639 9.66667H11.6664C11.9316 9.66667 12.186 9.56131 12.3735 9.37377C12.561 9.18624 12.6664 8.93188 12.6664 8.66667C12.6664 8.40145 12.561 8.1471 12.3735 7.95956C12.186 7.77202 11.9316 7.66667 11.6664 7.66667H8.06372C8.29039 7.34267 8.59972 7.088 8.97439 6.84267C9.23972 6.66933 9.49706 6.52667 9.78372 6.36533C9.93661 6.28089 10.1006 6.18844 10.2757 6.088C10.7411 5.81733 11.2597 5.488 11.7064 5.04C12.6731 4.07467 12.8397 2.77733 12.3104 1.72C11.7931 0.684 10.6771 0 9.33306 0C8.09039 0 7.20639 0.421333 6.62639 0.885333C6.31963 1.13131 6.05524 1.42588 5.84372 1.75733L5.79839 1.83733L5.78239 1.864L5.77706 1.87733L5.77439 1.88133V1.884L5.77172 1.88667C5.65327 2.12395 5.63392 2.39857 5.71794 2.65011C5.80195 2.90166 5.98245 3.1082 6.21972 3.22667ZM18.4997 3.64667C18.3197 3.81467 17.9664 4.00133 17.3331 4.00133C17.0678 4.00133 16.8135 4.10669 16.6259 4.29423C16.4384 4.48176 16.3331 4.73612 16.3331 5.00133C16.3331 5.26655 16.4384 5.5209 16.6259 5.70844C16.8135 5.89598 17.0678 6.00133 17.3331 6.00133C17.9651 6.00133 18.3197 6.188 18.4997 6.356C18.6797 6.524 18.7531 6.73333 18.7397 6.94267C18.7197 7.29333 18.3637 8.00133 16.9997 8.00133C16.3797 8.00133 15.9864 7.81867 15.7624 7.66933C15.6592 7.60167 15.5658 7.52 15.4851 7.42667C15.335 7.21299 15.1074 7.06645 14.8508 7.01836C14.5942 6.97028 14.3289 7.02446 14.1117 7.16933C13.3331 7.66933 13.8344 8.556 13.8344 8.556L13.8357 8.55733L13.8371 8.56L13.8397 8.564L13.8464 8.57467L13.8637 8.59867L13.9117 8.66267C13.9508 8.71244 14.0037 8.77289 14.0704 8.844C14.2037 8.98533 14.3944 9.16133 14.6531 9.33333C15.1784 9.684 15.9531 10.0013 16.9997 10.0013C19.1624 10.0013 20.6397 8.70933 20.7371 7.06C20.76 6.68238 20.7039 6.30413 20.5723 5.94943C20.4408 5.59472 20.2367 5.27136 19.9731 5C20.5211 4.43067 20.7811 3.68533 20.7371 2.94133C20.6384 1.292 19.1624 0 16.9997 0C15.9531 0 15.1784 0.317333 14.6531 0.668C14.3736 0.853019 14.1237 1.07912 13.9117 1.33867L13.8637 1.40267L13.8464 1.42667L13.8397 1.43733L13.8371 1.44133L13.8357 1.444L13.8344 1.44533C13.6846 1.66423 13.628 1.93364 13.6768 2.19432C13.7257 2.45499 13.8762 2.68557 14.0951 2.83533C14.3139 2.98509 14.5834 3.04176 14.844 2.99288C15.1047 2.94399 15.3353 2.79356 15.4851 2.57467L15.5237 2.53067C15.5677 2.484 15.6464 2.41067 15.7637 2.332C15.9877 2.18267 16.3797 2 16.9997 2C18.3637 2 18.7197 2.708 18.7411 3.05867C18.7473 3.16828 18.7289 3.27791 18.6871 3.37945C18.6453 3.48098 18.5813 3.57318 18.4997 3.64667ZM15.4984 7.44533L15.4891 7.43067V7.43333L15.4944 7.43867L15.4957 7.44133L15.4984 7.44533ZM15.4984 2.556L15.4891 2.56933V2.56667L15.4944 2.56133L15.4957 2.55867L15.4984 2.556ZM3.99306 1.19867L4.00239 1.332V8.66133C4.00498 8.9165 3.90993 9.16301 3.73669 9.35038C3.56346 9.53775 3.32515 9.6518 3.07056 9.66918C2.81597 9.68656 2.56436 9.60596 2.36727 9.44387C2.17017 9.28179 2.0425 9.05049 2.01039 8.79733L2.00239 8.66133V2.72267L1.31839 2.95333C1.08938 3.03 0.840364 3.02119 0.617339 2.92855C0.394315 2.83591 0.21235 2.66569 0.105056 2.44933L0.0517231 2.32267C-0.0249397 2.09366 -0.0161376 1.84464 0.0765034 1.62162C0.169145 1.39859 0.339365 1.21663 0.555723 1.10933L0.68239 1.056L2.68372 0.385333C2.82331 0.338444 2.97152 0.322959 3.11778 0.339985C3.26405 0.357011 3.40474 0.406127 3.52982 0.483825C3.6549 0.561523 3.76128 0.665885 3.84136 0.789456C3.92144 0.913028 3.97323 1.05276 3.99306 1.19867ZM22.0357 6.33333H25.6597C25.9249 6.33333 26.1793 6.43869 26.3668 6.62623C26.5544 6.81376 26.6597 7.06812 26.6597 7.33333V20.0067C26.6597 20.2719 26.5544 20.5262 26.3668 20.7138C26.1793 20.9013 25.9249 21.0067 25.6597 21.0067H4.99972C4.73451 21.0067 4.48015 20.9013 4.29262 20.7138C4.10508 20.5262 3.99972 20.2719 3.99972 20.0067V10.7387C3.69206 10.8975 3.35275 10.9854 3.00668 10.996C2.6606 11.0066 2.31654 10.9397 1.99972 10.8V20.0067C1.99972 20.8023 2.31579 21.5654 2.8784 22.128C3.44101 22.6906 4.20407 23.0067 4.99972 23.0067H25.6597C26.4554 23.0067 27.2184 22.6906 27.781 22.128C28.3437 21.5654 28.6597 20.8023 28.6597 20.0067V7.33333C28.6597 6.53768 28.3437 5.77462 27.781 5.21201C27.2184 4.6494 26.4554 4.33333 25.6597 4.33333H21.8837C21.8107 4.56355 21.717 4.78669 21.6037 5C21.8264 5.42 21.9717 5.87067 22.0357 6.33333ZM22.3331 17H8.33306L8.19706 17.0093C7.94606 17.0439 7.71752 17.1724 7.55763 17.3689C7.39774 17.5655 7.31842 17.8154 7.33569 18.0682C7.35296 18.3209 7.46553 18.5577 7.65067 18.7307C7.8358 18.9037 8.07969 18.9999 8.33306 19H22.3331L22.4691 18.9907C22.7201 18.9561 22.9486 18.8276 23.1085 18.6311C23.2684 18.4345 23.3477 18.1846 23.3304 17.9318C23.3132 17.6791 23.2006 17.4423 23.0154 17.2693C22.8303 17.0963 22.5864 17.0001 22.3331 17ZM22.6664 13.6667C22.6664 13.313 22.5259 12.9739 22.2759 12.7239C22.0258 12.4738 21.6867 12.3333 21.3331 12.3333C20.9794 12.3333 20.6403 12.4738 20.3902 12.7239C20.1402 12.9739 19.9997 13.313 19.9997 13.6667C19.9997 14.0203 20.1402 14.3594 20.3902 14.6095C20.6403 14.8595 20.9794 15 21.3331 15C21.6867 15 22.0258 14.8595 22.2759 14.6095C22.5259 14.3594 22.6664 14.0203 22.6664 13.6667ZM14.6731 13.6667C14.6731 13.313 14.5326 12.9739 14.2825 12.7239C14.0325 12.4738 13.6933 12.3333 13.3397 12.3333C12.9861 12.3333 12.647 12.4738 12.3969 12.7239C12.1469 12.9739 12.0064 13.313 12.0064 13.6667C12.0064 14.0203 12.1469 14.3594 12.3969 14.6095C12.647 14.8595 12.9861 15 13.3397 15C13.6933 15 14.0325 14.8595 14.2825 14.6095C14.5326 14.3594 14.6731 14.0203 14.6731 13.6667ZM10.6731 13.6667C10.6731 13.313 10.5326 12.9739 10.2825 12.7239C10.0325 12.4738 9.69335 12.3333 9.33972 12.3333C8.9861 12.3333 8.64696 12.4738 8.39691 12.7239C8.14686 12.9739 8.00639 13.313 8.00639 13.6667C8.00639 14.0203 8.14686 14.3594 8.39691 14.6095C8.64696 14.8595 8.9861 15 9.33972 15C9.69335 15 10.0325 14.8595 10.2825 14.6095C10.5326 14.3594 10.6731 14.0203 10.6731 13.6667ZM18.6731 13.6667C18.6731 13.313 18.5326 12.9739 18.2825 12.7239C18.0325 12.4738 17.6933 12.3333 17.3397 12.3333C16.9861 12.3333 16.647 12.4738 16.3969 12.7239C16.1469 12.9739 16.0064 13.313 16.0064 13.6667C16.0064 14.0203 16.1469 14.3594 16.3969 14.6095C16.647 14.8595 16.9861 15 17.3397 15C17.6933 15 18.0325 14.8595 18.2825 14.6095C18.5326 14.3594 18.6731 14.0203 18.6731 13.6667ZM24.6597 9.66667C24.6597 9.31304 24.5192 8.97391 24.2692 8.72386C24.0191 8.47381 23.68 8.33333 23.3264 8.33333C22.9728 8.33333 22.6336 8.47381 22.3836 8.72386C22.1335 8.97391 21.9931 9.31304 21.9931 9.66667C21.9931 10.0203 22.1335 10.3594 22.3836 10.6095C22.6336 10.8595 22.9728 11 23.3264 11C23.68 11 24.0191 10.8595 24.2692 10.6095C24.5192 10.3594 24.6597 10.0203 24.6597 9.66667Z" fill="#49159B"/>
</svg>
