<svg width="32" height="32" viewBox="0 0 32 32" fill="none" xmlns="http://www.w3.org/2000/svg">
<path d="M6.88769 5.56016C7.12143 5.67727 7.39173 5.69819 7.64069 5.61844C7.88966 5.53869 8.0975 5.36461 8.21969 5.1335L8.22236 5.12816L8.27036 5.05883C8.34942 4.95568 8.44076 4.86255 8.54236 4.7815C8.79569 4.57883 9.24369 4.3335 10.001 4.3335C10.657 4.3335 11.041 4.6495 11.1904 4.94683C11.3277 5.22283 11.3277 5.59216 10.961 5.96016C10.701 6.21883 10.3664 6.44416 9.93969 6.69083C9.82147 6.75927 9.69258 6.83216 9.55303 6.9095C9.23302 7.0895 8.87036 7.29216 8.54902 7.50283C7.53969 8.1615 6.55703 9.1175 6.34236 10.8788C6.32519 11.0193 6.33803 11.1618 6.38002 11.2969C6.42202 11.4321 6.49223 11.5568 6.58599 11.6628C6.67976 11.7687 6.79495 11.8536 6.92396 11.9118C7.05296 11.97 7.19285 12.0001 7.33436 12.0002H12.3344C12.5996 12.0002 12.8539 11.8948 13.0415 11.7073C13.229 11.5197 13.3344 11.2654 13.3344 11.0002C13.3344 10.7349 13.229 10.4806 13.0415 10.2931C12.8539 10.1055 12.5996 10.0002 12.3344 10.0002H8.73169C8.95836 9.67616 9.26769 9.4215 9.64236 9.17616C9.90769 9.00283 10.165 8.86016 10.4517 8.69883C10.6046 8.61439 10.7686 8.52194 10.9437 8.4215C11.409 8.15083 11.9277 7.8215 12.3744 7.3735C13.341 6.40816 13.5077 5.11083 12.9784 4.0535C12.461 3.0175 11.345 2.3335 10.001 2.3335C8.75836 2.3335 7.87436 2.75483 7.29436 3.21883C6.9876 3.4648 6.72321 3.75937 6.51169 4.09083L6.46636 4.17083L6.45036 4.1975L6.44503 4.21083L6.44236 4.21483V4.2175L6.43969 4.22016C6.32124 4.45744 6.30189 4.73206 6.3859 4.98361C6.46992 5.23516 6.65042 5.44169 6.88769 5.56016ZM19.1677 5.98016C18.9877 6.14816 18.6344 6.33483 18.001 6.33483C17.7358 6.33483 17.4815 6.44019 17.2939 6.62772C17.1064 6.81526 17.001 7.06961 17.001 7.33483C17.001 7.60005 17.1064 7.8544 17.2939 8.04194C17.4815 8.22947 17.7358 8.33483 18.001 8.33483C18.633 8.33483 18.9877 8.5215 19.1677 8.6895C19.3477 8.8575 19.421 9.06683 19.4077 9.27616C19.3877 9.62683 19.0317 10.3348 17.6677 10.3348C17.0477 10.3348 16.6544 10.1522 16.4304 10.0028C16.3271 9.93517 16.2338 9.8535 16.153 9.76016C16.003 9.54648 15.7754 9.39994 15.5188 9.35186C15.2621 9.30377 14.9969 9.35796 14.7797 9.50283C14.001 10.0028 14.5024 10.8895 14.5024 10.8895L14.5037 10.8908L14.505 10.8935L14.5077 10.8975L14.5144 10.9082L14.5317 10.9322L14.5797 10.9962C14.6188 11.0459 14.6717 11.1064 14.7384 11.1775C14.8717 11.3188 15.0624 11.4948 15.321 11.6668C15.8464 12.0175 16.621 12.3348 17.6677 12.3348C19.8304 12.3348 21.3077 11.0428 21.405 9.3935C21.4279 9.01588 21.3718 8.63763 21.2403 8.28292C21.1087 7.92822 20.9046 7.60485 20.641 7.3335C21.189 6.76416 21.449 6.01883 21.405 5.27483C21.3064 3.6255 19.8304 2.3335 17.6677 2.3335C16.621 2.3335 15.8464 2.65083 15.321 3.0015C15.0416 3.18651 14.7917 3.41261 14.5797 3.67216L14.5317 3.73616L14.5144 3.76016L14.5077 3.77083L14.505 3.77483L14.5037 3.7775L14.5024 3.77883C14.3526 3.99772 14.2959 4.26714 14.3448 4.52782C14.3937 4.78849 14.5441 5.01907 14.763 5.16883C14.9819 5.31859 15.2513 5.37526 15.512 5.32637C15.7727 5.27749 16.0033 5.12705 16.153 4.90816L16.1917 4.86416C16.2357 4.8175 16.3144 4.74416 16.4317 4.6655C16.6557 4.51616 17.0477 4.3335 17.6677 4.3335C19.0317 4.3335 19.3877 5.0415 19.409 5.39216C19.4153 5.50178 19.3968 5.6114 19.3551 5.71294C19.3133 5.81448 19.2493 5.90668 19.1677 5.98016ZM16.1664 9.77883L16.157 9.76416V9.76683L16.1624 9.77216L16.1637 9.77483L16.1664 9.77883ZM16.1664 4.8895L16.157 4.90283V4.90016L16.1624 4.89483L16.1637 4.89216L16.1664 4.8895ZM4.66102 3.53216L4.67036 3.6655V10.9948C4.67295 11.25 4.5779 11.4965 4.40466 11.6839C4.23143 11.8712 3.99311 11.9853 3.73852 12.0027C3.48394 12.0201 3.23233 11.9395 3.03524 11.7774C2.83814 11.6153 2.71047 11.384 2.67836 11.1308L2.67036 10.9948V5.05616L1.98636 5.28683C1.75735 5.36349 1.50833 5.35469 1.28531 5.26205C1.06228 5.16941 0.880318 4.99919 0.773025 4.78283L0.719692 4.65616C0.643029 4.42715 0.651831 4.17814 0.744472 3.95511C0.837113 3.73209 1.00733 3.55012 1.22369 3.44283L1.35036 3.3895L3.35169 2.71883C3.49128 2.67194 3.63949 2.65646 3.78575 2.67348C3.93201 2.69051 4.07271 2.73962 4.19779 2.81732C4.32287 2.89502 4.42925 2.99938 4.50933 3.12295C4.5894 3.24652 4.6412 3.38625 4.66102 3.53216ZM22.7037 8.66683H26.3277C26.5929 8.66683 26.8473 8.77219 27.0348 8.95972C27.2223 9.14726 27.3277 9.40161 27.3277 9.66683V22.3402C27.3277 22.6054 27.2223 22.8597 27.0348 23.0473C26.8473 23.2348 26.5929 23.3402 26.3277 23.3402H5.66769C5.40247 23.3402 5.14812 23.2348 4.96058 23.0473C4.77305 22.8597 4.66769 22.6054 4.66769 22.3402V13.0722C4.36003 13.231 4.02072 13.3189 3.67464 13.3295C3.32857 13.3401 2.98451 13.2732 2.66769 13.1335V22.3402C2.66769 23.1358 2.98376 23.8989 3.54637 24.4615C4.10898 25.0241 4.87204 25.3402 5.66769 25.3402H26.3277C27.1233 25.3402 27.8864 25.0241 28.449 24.4615C29.0116 23.8989 29.3277 23.1358 29.3277 22.3402V9.66683C29.3277 8.87118 29.0116 8.10812 28.449 7.54551C27.8864 6.9829 27.1233 6.66683 26.3277 6.66683H22.5517C22.4787 6.89705 22.385 7.12018 22.2717 7.3335C22.4944 7.7535 22.6397 8.20416 22.7037 8.66683ZM23.001 19.3335H9.00103L8.86502 19.3428C8.61402 19.3774 8.38549 19.5059 8.2256 19.7024C8.06571 19.899 7.98639 20.1489 8.00366 20.4017C8.02093 20.6544 8.1335 20.8912 8.31864 21.0642C8.50377 21.2372 8.74766 21.3334 9.00103 21.3335H23.001L23.137 21.3242C23.388 21.2896 23.6166 21.1611 23.7764 20.9646C23.9363 20.768 24.0157 20.5181 23.9984 20.2653C23.9811 20.0126 23.8685 19.7758 23.6834 19.6028C23.4983 19.4298 23.2544 19.3336 23.001 19.3335ZM23.3344 16.0002C23.3344 15.6465 23.1939 15.3074 22.9438 15.0574C22.6938 14.8073 22.3546 14.6668 22.001 14.6668C21.6474 14.6668 21.3083 14.8073 21.0582 15.0574C20.8082 15.3074 20.6677 15.6465 20.6677 16.0002C20.6677 16.3538 20.8082 16.6929 21.0582 16.943C21.3083 17.193 21.6474 17.3335 22.001 17.3335C22.3546 17.3335 22.6938 17.193 22.9438 16.943C23.1939 16.6929 23.3344 16.3538 23.3344 16.0002ZM15.341 16.0002C15.341 15.6465 15.2005 15.3074 14.9505 15.0574C14.7005 14.8073 14.3613 14.6668 14.0077 14.6668C13.6541 14.6668 13.3149 14.8073 13.0649 15.0574C12.8148 15.3074 12.6744 15.6465 12.6744 16.0002C12.6744 16.3538 12.8148 16.6929 13.0649 16.943C13.3149 17.193 13.6541 17.3335 14.0077 17.3335C14.3613 17.3335 14.7005 17.193 14.9505 16.943C15.2005 16.6929 15.341 16.3538 15.341 16.0002ZM11.341 16.0002C11.341 15.6465 11.2005 15.3074 10.9505 15.0574C10.7005 14.8073 10.3613 14.6668 10.0077 14.6668C9.65407 14.6668 9.31493 14.8073 9.06488 15.0574C8.81483 15.3074 8.67436 15.6465 8.67436 16.0002C8.67436 16.3538 8.81483 16.6929 9.06488 16.943C9.31493 17.193 9.65407 17.3335 10.0077 17.3335C10.3613 17.3335 10.7005 17.193 10.9505 16.943C11.2005 16.6929 11.341 16.3538 11.341 16.0002ZM19.341 16.0002C19.341 15.6465 19.2005 15.3074 18.9505 15.0574C18.7005 14.8073 18.3613 14.6668 18.0077 14.6668C17.6541 14.6668 17.3149 14.8073 17.0649 15.0574C16.8148 15.3074 16.6744 15.6465 16.6744 16.0002C16.6744 16.3538 16.8148 16.6929 17.0649 16.943C17.3149 17.193 17.6541 17.3335 18.0077 17.3335C18.3613 17.3335 18.7005 17.193 18.9505 16.943C19.2005 16.6929 19.341 16.3538 19.341 16.0002ZM25.3277 12.0002C25.3277 11.6465 25.1872 11.3074 24.9372 11.0574C24.6871 10.8073 24.348 10.6668 23.9944 10.6668C23.6407 10.6668 23.3016 10.8073 23.0515 11.0574C22.8015 11.3074 22.661 11.6465 22.661 12.0002C22.661 12.3538 22.8015 12.6929 23.0515 12.943C23.3016 13.193 23.6407 13.3335 23.9944 13.3335C24.348 13.3335 24.6871 13.193 24.9372 12.943C25.1872 12.6929 25.3277 12.3538 25.3277 12.0002Z" fill="#49159B"/>
</svg>
