<svg width="30" height="28" viewBox="0 0 30 28" fill="none" xmlns="http://www.w3.org/2000/svg">
<path d="M27 26V13M3 13V26M1 27H29M17 27V17.5C17 17.1022 17.158 16.7206 17.4393 16.4393C17.7206 16.158 18.1022 16 18.5 16H22.5C22.8978 16 23.2794 16.158 23.5607 16.4393C23.842 16.7206 24 17.1022 24 17.5V27M22.9044 1H7.09562C5.73375 1 4.50375 1.75 3.975 2.90375L1.26875 8.8125C0.3575 10.8006 1.87062 13.0531 4.21812 13.125H4.34312C6.30562 13.125 7.89625 11.5513 7.89625 9.86063C7.89625 11.5481 9.4875 13.125 11.45 13.125C13.4125 13.125 15 11.6638 15 9.86063C15 11.5481 16.5906 13.125 18.5531 13.125C20.5156 13.125 22.1069 11.6638 22.1069 9.86063C22.1069 11.6638 23.6975 13.125 25.66 13.125H25.7819C28.1294 13.0519 29.6425 10.7994 28.7313 8.8125L26.025 2.90375C25.4962 1.75 24.2663 1 22.9044 1ZM7.5 16H12.5C12.8978 16 13.2794 16.158 13.5607 16.4393C13.842 16.7206 14 17.1022 14 17.5V23H6V17.5C6 17.1022 6.15804 16.7206 6.43934 16.4393C6.72064 16.158 7.10218 16 7.5 16Z" stroke="#49159B" stroke-width="1.5" stroke-linecap="round" stroke-linejoin="round"/>
</svg>
