<svg width="184" height="207" viewBox="0 0 184 207" fill="none" xmlns="http://www.w3.org/2000/svg">
<path d="M79.1895 16.835C79.1895 13.1054 80.671 9.5285 83.3083 6.89127C85.9455 4.25404 89.5223 2.77246 93.252 2.77246C96.9816 2.77246 100.558 4.25404 103.196 6.89127C105.833 9.5285 107.314 13.1054 107.314 16.835C107.314 20.7654 106.414 23.1584 105.158 24.8834C103.979 26.5053 102.449 27.6115 100.705 28.8748L100.18 29.2545C98.2582 30.6514 96.184 32.2615 94.6254 34.8701C93.0645 37.4881 92.0801 40.999 92.0801 46.1318C92.0801 46.4426 92.2035 46.7407 92.4233 46.9605C92.6431 47.1802 92.9412 47.3037 93.252 47.3037C93.5628 47.3037 93.8608 47.1802 94.0806 46.9605C94.3004 46.7407 94.4238 46.4426 94.4238 46.1318C94.4238 41.3037 95.3449 38.2334 96.6387 36.0725C97.9371 33.8975 99.6715 32.5217 101.561 31.1506L102.1 30.7568C103.806 29.5287 105.643 28.2021 107.054 26.2639C108.655 24.0607 109.658 21.1568 109.658 16.835C109.658 12.4838 107.93 8.31076 104.853 5.23399C101.776 2.15722 97.6032 0.428711 93.252 0.428711C88.9007 0.428711 84.7278 2.15722 81.651 5.23399C78.5742 8.31076 76.8457 12.4838 76.8457 16.835C76.8457 17.1458 76.9692 17.4438 77.1889 17.6636C77.4087 17.8834 77.7068 18.0068 78.0176 18.0068C78.3284 18.0068 78.6265 17.8834 78.8462 17.6636C79.066 17.4438 79.1895 17.1458 79.1895 16.835ZM93.252 59.0225C93.8736 59.0225 94.4697 58.7755 94.9092 58.336C95.3488 57.8965 95.5957 57.3003 95.5957 56.6787C95.5957 56.0571 95.3488 55.461 94.9092 55.0214C94.4697 54.5819 93.8736 54.335 93.252 54.335C92.6304 54.335 92.0342 54.5819 91.5947 55.0214C91.1551 55.461 90.9082 56.0571 90.9082 56.6787C90.9082 57.3003 91.1551 57.8965 91.5947 58.336C92.0342 58.7755 92.6304 59.0225 93.252 59.0225Z" fill="#929292"/>
<path d="M18.7168 141.425V191.809L91.9698 205.571V95.7666" stroke="#929292" stroke-width="1.5" stroke-linecap="round" stroke-linejoin="round"/>
<path d="M164.824 142.758V190.929L91.9688 205.571" stroke="#929292" stroke-width="1.5" stroke-linecap="round" stroke-linejoin="round"/>
<path d="M30.7202 175.997L44.4827 177.461M114.348 135.804L176.987 144.433C177.96 144.568 178.95 144.441 179.856 144.064C180.762 143.687 181.551 143.075 182.141 142.291C182.731 141.506 183.101 140.579 183.212 139.604C183.322 138.629 183.17 137.642 182.771 136.745L164.825 96.3514L91.9656 84.0537L18.722 96.9411L1.26743 134.452C0.862491 135.32 0.691363 136.28 0.770982 137.235C0.850601 138.19 1.17821 139.107 1.72138 139.897C2.26455 140.686 3.00446 141.32 3.86788 141.736C4.7313 142.151 5.6883 142.335 6.64418 142.267L69.0594 137.929C70.3025 137.843 71.499 137.421 72.521 136.708C73.543 135.995 74.3521 135.018 74.862 133.881L91.9656 95.7712L109.06 131.93C109.549 132.964 110.288 133.86 111.21 134.536C112.133 135.213 113.214 135.649 114.348 135.804Z" stroke="#929292" stroke-width="1.5" stroke-linecap="round" stroke-linejoin="round"/>
</svg>
