<svg width="33" height="32" viewBox="0 0 33 32" fill="none" xmlns="http://www.w3.org/2000/svg">
<path d="M16.5 29.3334C15.4093 29.3334 14.3667 28.9001 12.2827 28.0347C7.09467 25.8801 4.5 24.8027 4.5 22.9907V10.3267M16.5 29.3334C17.5907 29.3334 18.6333 28.9001 20.7173 28.0347C25.9053 25.8801 28.5 24.8027 28.5 22.9907V10.3267M16.5 29.3334V16.2254M4.5 10.3267C4.5 11.1307 5.56933 11.6401 7.70667 12.6561L11.6 14.5094C14.0067 15.6534 15.2067 16.2267 16.5 16.2267C17.7933 16.2267 18.9933 15.6534 21.4 14.5094L25.2933 12.6561C27.4307 11.6401 28.5 11.1307 28.5 10.3267M4.5 10.3267C4.5 9.52141 5.56933 9.01208 7.70667 7.99608L10.5 6.66675M28.5 10.3267C28.5 9.52141 27.4307 9.01341 25.2933 7.99741L22.5 6.66675M8.5 17.5361L11.1667 18.8467M16.5053 2.66675V12.0001M16.5053 12.0001C16.856 12.0054 17.2013 11.7601 17.4573 11.4601L19.1667 9.41608M16.5053 12.0001C16.1667 11.9961 15.824 11.7521 15.5533 11.4601L13.8333 9.41608" stroke="#49159B" stroke-width="1.5" stroke-linecap="round" stroke-linejoin="round"/>
</svg>
