<svg width="18" height="21" viewBox="0 0 18 21" fill="none" xmlns="http://www.w3.org/2000/svg">
<path fill-rule="evenodd" clip-rule="evenodd" d="M8.99961 9.1999C9.63613 9.1999 10.2466 8.94705 10.6967 8.49696C11.1468 8.04687 11.3996 7.43642 11.3996 6.7999C11.3996 6.16338 11.1468 5.55293 10.6967 5.10285C10.2466 4.65276 9.63613 4.3999 8.99961 4.3999C8.36309 4.3999 7.75264 4.65276 7.30255 5.10285C6.85247 5.55293 6.59961 6.16338 6.59961 6.7999C6.59961 7.43642 6.85247 8.04687 7.30255 8.49696C7.75264 8.94705 8.36309 9.1999 8.99961 9.1999ZM8.99961 5.5999C9.31787 5.5999 9.62309 5.72633 9.84814 5.95137C10.0732 6.17642 10.1996 6.48164 10.1996 6.7999C10.1996 7.11816 10.0732 7.42339 9.84814 7.64843C9.62309 7.87347 9.31787 7.9999 8.99961 7.9999C8.68135 7.9999 8.37613 7.87347 8.15108 7.64843C7.92604 7.42339 7.79961 7.11816 7.79961 6.7999C7.79961 6.48164 7.92604 6.17642 8.15108 5.95137C8.37613 5.72633 8.68135 5.5999 8.99961 5.5999Z" fill="white"/>
<path fill-rule="evenodd" clip-rule="evenodd" d="M3.59961 6.543C3.59961 9.7506 6.78321 15.1998 8.99961 15.1998C11.2172 15.1998 14.3996 9.7506 14.3996 6.543C14.3996 3.3798 11.9912 0.799805 8.99961 0.799805C6.00801 0.799805 3.59961 3.3798 3.59961 6.543ZM13.1996 6.543C13.1996 9.1746 10.382 13.9998 8.99961 13.9998C7.61841 13.9998 4.79961 9.17581 4.79961 6.543C4.79961 4.0242 6.68961 1.9998 8.99961 1.9998C11.3096 1.9998 13.1996 4.0242 13.1996 6.543Z" fill="white"/>
<path d="M13.1225 9.96773C12.979 9.906 12.8653 9.79074 12.8055 9.64647C12.7456 9.50219 12.7444 9.34026 12.8021 9.1951C12.8597 9.04994 12.9717 8.93298 13.1142 8.86909C13.2568 8.80519 13.4186 8.7994 13.5653 8.85293C14.0533 9.04648 14.493 9.3444 14.8537 9.72581C15.2144 10.1072 15.4873 10.5629 15.6533 11.0609L17.2541 15.8609C17.4346 16.4023 17.4839 16.9788 17.3978 17.543C17.3117 18.1071 17.0927 18.6427 16.7589 19.1055C16.425 19.5684 15.986 19.9452 15.4779 20.205C14.9698 20.4648 14.4072 20.6001 13.8365 20.5997H4.16452C3.59405 20.5997 3.03175 20.4642 2.52396 20.2042C2.01617 19.9443 1.57742 19.5674 1.24388 19.1046C0.910348 18.6418 0.691571 18.1063 0.605584 17.5424C0.519597 16.9784 0.568863 16.4021 0.74932 15.8609L2.34892 11.0609C2.51782 10.554 2.79746 10.091 3.16754 9.70556C3.53762 9.32012 3.98886 9.0219 4.48852 8.83253C4.56219 8.80456 4.64065 8.79137 4.71942 8.79372C4.79819 8.79607 4.87572 8.81392 4.94759 8.84623C5.01947 8.87855 5.08427 8.9247 5.13831 8.98206C5.19234 9.03942 5.23455 9.10686 5.26252 9.18053C5.29049 9.2542 5.30368 9.33266 5.30133 9.41143C5.29898 9.4902 5.28114 9.56773 5.24882 9.6396C5.21651 9.71148 5.17035 9.77628 5.11299 9.83032C5.05563 9.88435 4.98819 9.92656 4.91452 9.95453C4.58099 10.0807 4.27977 10.2796 4.03275 10.5368C3.78574 10.794 3.59914 11.103 3.48652 11.4413L1.88692 16.2413C1.76675 16.6021 1.73404 16.9863 1.79148 17.3622C1.84892 17.7382 1.99487 18.0951 2.2173 18.4035C2.43973 18.712 2.73227 18.9631 3.07082 19.1363C3.40937 19.3095 3.78424 19.3998 4.16452 19.3997H13.8389C14.2192 19.3997 14.5941 19.3093 14.9326 19.1359C15.2712 18.9626 15.5636 18.7112 15.7859 18.4027C16.0083 18.0941 16.1541 17.7371 16.2113 17.3611C16.2686 16.9851 16.2357 16.6009 16.1153 16.2401L14.5169 11.4401C14.4062 11.1083 14.2242 10.8046 13.9837 10.5505C13.7433 10.2964 13.4502 10.0979 13.1249 9.96893" fill="white"/>
</svg>
