<svg width="234" height="234" viewBox="0 0 234 234" fill="none" xmlns="http://www.w3.org/2000/svg">
<path d="M11.7083 0.625C5.58718 0.625 0.625 5.58718 0.625 11.7083H11.7083V0.625Z" fill="#1E1E1E"/>
<path d="M22.7917 0.625H11.7083V11.7083H22.7917V0.625Z" fill="#1E1E1E"/>
<path d="M33.875 0.625H22.7917V11.7083H33.875V0.625Z" fill="#1E1E1E"/>
<path d="M44.9583 0.625H33.875V11.7083H44.9583V0.625Z" fill="#1E1E1E"/>
<path d="M56.0417 0.625H44.9583V11.7083H56.0417V0.625Z" fill="#1E1E1E"/>
<path d="M67.125 0.625H56.0417V11.7083H67.125V0.625Z" fill="#1E1E1E"/>
<path d="M78.2083 11.7083C78.2083 5.58718 73.2461 0.625 67.125 0.625V11.7083H78.2083Z" fill="#1E1E1E"/>
<path d="M100.375 0.625H94.8333C91.7728 0.625 89.2917 3.10609 89.2917 6.16667C89.2917 9.22724 91.7728 11.7083 94.8333 11.7083H100.375V0.625Z" fill="#1E1E1E"/>
<path d="M111.458 0.625H100.375V11.7083H111.458V0.625Z" fill="#1E1E1E"/>
<path d="M122.542 0.625H111.458V11.7083H122.542V0.625Z" fill="#1E1E1E"/>
<path d="M133.625 6.16667C133.625 3.10609 131.144 0.625 128.083 0.625H122.542V11.7083H128.083C131.144 11.7083 133.625 9.22724 133.625 6.16667Z" fill="#1E1E1E"/>
<path d="M166.875 0.625C160.754 0.625 155.792 5.58718 155.792 11.7083H166.875V0.625Z" fill="#1E1E1E"/>
<path d="M177.958 0.625H166.875V11.7083H177.958V0.625Z" fill="#1E1E1E"/>
<path d="M189.042 0.625H177.958V11.7083H189.042V0.625Z" fill="#1E1E1E"/>
<path d="M200.125 0.625H189.042V11.7083H200.125V0.625Z" fill="#1E1E1E"/>
<path d="M211.208 0.625H200.125V11.7083H211.208V0.625Z" fill="#1E1E1E"/>
<path d="M222.292 0.625H211.208V11.7083H222.292V0.625Z" fill="#1E1E1E"/>
<path d="M233.375 11.7083C233.375 5.58718 228.413 0.625 222.292 0.625V11.7083H233.375Z" fill="#1E1E1E"/>
<path d="M11.7083 11.7083H0.625V22.7917H11.7083V11.7083Z" fill="#1E1E1E"/>
<path d="M78.2083 11.7083H67.125V22.7917H78.2083V11.7083Z" fill="#1E1E1E"/>
<path d="M111.458 11.7083H100.375L100.375 22.7917H111.458V11.7083Z" fill="#1E1E1E"/>
<path d="M122.542 11.7083H111.458V22.7917H122.542V11.7083Z" fill="#1E1E1E"/>
<path d="M166.875 11.7083H155.792V22.7917H166.875V11.7083Z" fill="#1E1E1E"/>
<path d="M233.375 11.7083H222.292V22.7917H233.375V11.7083Z" fill="#1E1E1E"/>
<path d="M11.7083 22.7917H0.625V33.875H11.7083V22.7917Z" fill="#1E1E1E"/>
<path d="M33.875 22.7917C27.7538 22.7917 22.7917 27.7538 22.7917 33.875H33.875V22.7917Z" fill="#1E1E1E"/>
<path d="M44.9583 22.7917H33.875V33.875H44.9583V22.7917Z" fill="#1E1E1E"/>
<path d="M56.0417 33.875C56.0417 27.7538 51.0795 22.7917 44.9583 22.7917V33.875H56.0417Z" fill="#1E1E1E"/>
<path d="M78.2083 22.7917H67.125V33.875H78.2083V22.7917Z" fill="#1E1E1E"/>
<path d="M100.375 22.7917C94.2538 22.7917 89.2917 27.7538 89.2917 33.875H100.375L100.375 22.7917Z" fill="#1E1E1E"/>
<path d="M133.625 22.7917H122.542L122.542 33.875H133.625V22.7917Z" fill="#1E1E1E"/>
<path d="M144.708 33.875C144.708 27.7538 139.746 22.7917 133.625 22.7917V33.875H144.708Z" fill="#1E1E1E"/>
<path d="M166.875 22.7917H155.792V33.875H166.875V22.7917Z" fill="#1E1E1E"/>
<path d="M189.042 22.7917C182.921 22.7917 177.958 27.7538 177.958 33.875H189.042V22.7917Z" fill="#1E1E1E"/>
<path d="M200.125 22.7917H189.042V33.875H200.125V22.7917Z" fill="#1E1E1E"/>
<path d="M211.208 33.875C211.208 27.7539 206.246 22.7917 200.125 22.7917V33.875H211.208Z" fill="#1E1E1E"/>
<path d="M233.375 22.7917H222.292V33.875H233.375V22.7917Z" fill="#1E1E1E"/>
<path d="M11.7083 33.875H0.625V44.9583H11.7083V33.875Z" fill="#1E1E1E"/>
<path d="M33.875 33.875H22.7917V44.9583H33.875V33.875Z" fill="#1E1E1E"/>
<path d="M44.9583 33.875H33.875V44.9583H44.9583V33.875Z" fill="#1E1E1E"/>
<path d="M56.0417 33.875H44.9583V44.9583H56.0417V33.875Z" fill="#1E1E1E"/>
<path d="M78.2083 33.875H67.125V44.9583H78.2083V33.875Z" fill="#1E1E1E"/>
<path d="M100.375 33.875H89.2917V44.9583H100.375V33.875Z" fill="#1E1E1E"/>
<path d="M111.458 33.875H100.375V44.9583H111.458V33.875Z" fill="#1E1E1E"/>
<path d="M122.542 33.875H111.458V44.9583C117.579 44.9583 122.542 39.9962 122.542 33.875Z" fill="#1E1E1E"/>
<path d="M144.708 33.875H133.625V39.4167C133.625 42.4772 136.106 44.9583 139.167 44.9583C142.227 44.9583 144.708 42.4772 144.708 39.4167V33.875Z" fill="#1E1E1E"/>
<path d="M166.875 33.875H155.792V44.9583H166.875V33.875Z" fill="#1E1E1E"/>
<path d="M189.042 33.875H177.958V44.9583H189.042V33.875Z" fill="#1E1E1E"/>
<path d="M200.125 33.875H189.042V44.9583H200.125V33.875Z" fill="#1E1E1E"/>
<path d="M211.208 33.875H200.125V44.9583H205.667H211.208V33.875Z" fill="#1E1E1E"/>
<path d="M233.375 33.875H222.292V44.9583H233.375V33.875Z" fill="#1E1E1E"/>
<path d="M11.7083 44.9583H0.625V56.0417H11.7083V44.9583Z" fill="#1E1E1E"/>
<path d="M33.875 44.9583H22.7917C22.7917 51.0795 27.7538 56.0417 33.875 56.0417V44.9583Z" fill="#1E1E1E"/>
<path d="M44.9583 44.9583H33.875V56.0417H44.9583V44.9583Z" fill="#1E1E1E"/>
<path d="M56.0417 44.9583H44.9583V56.0417C51.0795 56.0417 56.0417 51.0795 56.0417 44.9583Z" fill="#1E1E1E"/>
<path d="M78.2083 44.9583H67.125V56.0417H78.2083V44.9583Z" fill="#1E1E1E"/>
<path d="M100.375 44.9583H89.2917V56.0417H100.375V44.9583Z" fill="#1E1E1E"/>
<path d="M166.875 44.9583H155.792V56.0417H166.875V44.9583Z" fill="#1E1E1E"/>
<path d="M189.042 44.9583H177.958C177.958 51.0795 182.921 56.0417 189.042 56.0417V44.9583Z" fill="#1E1E1E"/>
<path d="M200.125 44.9583H189.042V56.0417H200.125V44.9583Z" fill="#1E1E1E"/>
<path d="M211.208 44.9583H205.667H200.125V56.0417C206.246 56.0417 211.208 51.0795 211.208 44.9583Z" fill="#1E1E1E"/>
<path d="M233.375 44.9583H222.292V56.0417H233.375V44.9583Z" fill="#1E1E1E"/>
<path d="M11.7083 56.0417H0.625V67.125H11.7083V56.0417Z" fill="#1E1E1E"/>
<path d="M78.2083 56.0417H67.125V67.125H78.2083V56.0417Z" fill="#1E1E1E"/>
<path d="M100.375 56.0417H89.2917V67.125H100.375V56.0417Z" fill="#1E1E1E"/>
<path d="M111.458 56.0417H100.375V67.125H111.458V56.0417Z" fill="#1E1E1E"/>
<path d="M122.542 67.125C122.542 61.0038 117.579 56.0417 111.458 56.0417V67.125H122.542Z" fill="#1E1E1E"/>
<path d="M144.708 61.5833C144.708 58.5228 142.227 56.0417 139.167 56.0417C136.106 56.0417 133.625 58.5228 133.625 61.5833V67.125H144.708V61.5833Z" fill="#1E1E1E"/>
<path d="M166.875 56.0417H155.792V67.125H166.875V56.0417Z" fill="#1E1E1E"/>
<path d="M233.375 56.0417H222.292V67.125H233.375V56.0417Z" fill="#1E1E1E"/>
<path d="M11.7083 67.125H0.625C0.625 73.2461 5.58718 78.2083 11.7083 78.2083V67.125Z" fill="#1E1E1E"/>
<path d="M22.7917 67.125H11.7083V78.2083H22.7917V67.125Z" fill="#1E1E1E"/>
<path d="M33.875 67.125H22.7917V78.2083H33.875V67.125Z" fill="#1E1E1E"/>
<path d="M44.9583 67.125H33.875V78.2083H44.9583V67.125Z" fill="#1E1E1E"/>
<path d="M56.0417 67.125H44.9583V78.2083H56.0417V67.125Z" fill="#1E1E1E"/>
<path d="M67.125 67.125H56.0417V78.2083H67.125V67.125Z" fill="#1E1E1E"/>
<path d="M78.2083 67.125H67.125V78.2083C73.2462 78.2083 78.2083 73.2462 78.2083 67.125Z" fill="#1E1E1E"/>
<path d="M100.375 67.125H89.2917V72.6667C89.2917 75.7272 91.7728 78.2083 94.8333 78.2083C97.8939 78.2083 100.375 75.7272 100.375 72.6667V67.125Z" fill="#1E1E1E"/>
<path d="M122.542 67.125H111.458L111.458 78.2083H122.542V67.125Z" fill="#1E1E1E"/>
<path d="M144.708 67.125H133.625V78.2083H144.708V67.125Z" fill="#1E1E1E"/>
<path d="M166.875 67.125H155.792C155.792 73.2461 160.754 78.2083 166.875 78.2083V67.125Z" fill="#1E1E1E"/>
<path d="M177.958 67.125H166.875V78.2083H177.958V67.125Z" fill="#1E1E1E"/>
<path d="M189.042 67.125H177.958V78.2083H189.042V67.125Z" fill="#1E1E1E"/>
<path d="M200.125 67.125H189.042V78.2083H200.125V67.125Z" fill="#1E1E1E"/>
<path d="M211.208 67.125H200.125V78.2083H211.208V67.125Z" fill="#1E1E1E"/>
<path d="M222.292 67.125H211.208V78.2083H222.292V67.125Z" fill="#1E1E1E"/>
<path d="M233.375 67.125H222.292V78.2083C228.413 78.2083 233.375 73.2461 233.375 67.125Z" fill="#1E1E1E"/>
<path d="M122.542 78.2083H111.458V89.2917H122.542V78.2083Z" fill="#1E1E1E"/>
<path d="M144.708 78.2083H133.625V89.2917H144.708V78.2083Z" fill="#1E1E1E"/>
<path d="M33.875 89.2917H28.3333C25.2728 89.2917 22.7917 91.7728 22.7917 94.8333C22.7917 97.8939 25.2728 100.375 28.3333 100.375H33.875V89.2917Z" fill="#1E1E1E"/>
<path d="M44.9583 89.2917H33.875V100.375H44.9583V89.2917Z" fill="#1E1E1E"/>
<path d="M56.0417 89.2917H44.9583V100.375H56.0417V89.2917Z" fill="#1E1E1E"/>
<path d="M67.125 89.2917H56.0417V100.375H67.125V89.2917Z" fill="#1E1E1E"/>
<path d="M78.2083 89.2917H67.125V100.375H78.2083V89.2917Z" fill="#1E1E1E"/>
<path d="M89.2917 100.375C89.2917 94.2538 84.3295 89.2917 78.2083 89.2917V100.375H89.2917Z" fill="#1E1E1E"/>
<path d="M122.542 89.2917H111.458V100.375H122.542V89.2917Z" fill="#1E1E1E"/>
<path d="M133.625 89.2917H122.542V100.375H133.625V89.2917Z" fill="#1E1E1E"/>
<path d="M155.792 100.375C155.792 94.2538 150.829 89.2917 144.708 89.2917V100.375H155.792Z" fill="#1E1E1E"/>
<path d="M177.958 89.2917C171.837 89.2917 166.875 94.2538 166.875 100.375H177.958V89.2917Z" fill="#1E1E1E"/>
<path d="M189.042 89.2917H177.958V100.375H189.042V89.2917Z" fill="#1E1E1E"/>
<path d="M200.125 89.2917H189.042V100.375H200.125V89.2917Z" fill="#1E1E1E"/>
<path d="M211.208 100.375C211.208 94.2538 206.246 89.2917 200.125 89.2917V100.375H211.208Z" fill="#1E1E1E"/>
<path d="M233.375 94.8333C233.375 91.7728 230.894 89.2917 227.833 89.2917C224.773 89.2917 222.292 91.7728 222.292 94.8333V100.375H227.833C230.894 100.375 233.375 97.8939 233.375 94.8333Z" fill="#1E1E1E"/>
<path d="M44.9583 100.375H33.875V111.458H44.9583V100.375Z" fill="#1E1E1E"/>
<path d="M89.2917 100.375H78.2083V111.458H89.2917V100.375Z" fill="#1E1E1E"/>
<path d="M111.458 100.375C105.337 100.375 100.375 105.337 100.375 111.458H111.458L111.458 100.375Z" fill="#1E1E1E"/>
<path d="M122.542 100.375H111.458L111.458 111.458C117.579 111.458 122.542 106.496 122.542 100.375Z" fill="#1E1E1E"/>
<path d="M144.708 100.375H133.625V111.458H144.708V100.375Z" fill="#1E1E1E"/>
<path d="M166.875 100.375H155.792V105.917C155.792 108.977 158.273 111.458 161.333 111.458C164.394 111.458 166.875 108.977 166.875 105.917V100.375Z" fill="#1E1E1E"/>
<path d="M189.042 100.375H177.958V111.458H189.042V100.375Z" fill="#1E1E1E"/>
<path d="M200.125 100.375H189.042V111.458H200.125V100.375Z" fill="#1E1E1E"/>
<path d="M211.208 100.375H200.125V111.458H211.208V100.375Z" fill="#1E1E1E"/>
<path d="M222.292 100.375H211.208V111.458H222.292V100.375Z" fill="#1E1E1E"/>
<path d="M33.875 111.458C27.7538 111.458 22.7917 116.421 22.7917 122.542H33.875V111.458Z" fill="#1E1E1E"/>
<path d="M44.9583 111.458H33.875V122.542H44.9583V111.458Z" fill="#1E1E1E"/>
<path d="M67.125 111.458C61.0038 111.458 56.0417 116.421 56.0417 122.542H67.125V111.458Z" fill="#1E1E1E"/>
<path d="M78.2083 111.458L67.125 111.458V122.542C73.2461 122.542 78.2083 117.579 78.2083 111.458Z" fill="#1E1E1E"/>
<path d="M100.375 111.458H89.2917V122.542H100.375L100.375 111.458Z" fill="#1E1E1E"/>
<path d="M144.708 111.458H133.625V122.542C139.746 122.542 144.708 117.579 144.708 111.458Z" fill="#1E1E1E"/>
<path d="M189.042 111.458H177.958V122.542H189.042V111.458Z" fill="#1E1E1E"/>
<path d="M200.125 111.458H189.042V122.542H200.125V111.458Z" fill="#1E1E1E"/>
<path d="M222.292 111.458H211.208V122.542H222.292V111.458Z" fill="#1E1E1E"/>
<path d="M22.7917 122.542C16.6705 122.542 11.7083 127.504 11.7083 133.625H22.7917V122.542Z" fill="#1E1E1E"/>
<path d="M44.9583 122.542H33.875V133.625H44.9583V122.542Z" fill="#1E1E1E"/>
<path d="M67.125 122.542H56.0417V133.625H67.125V122.542Z" fill="#1E1E1E"/>
<path d="M100.375 122.542H89.2917C89.2917 128.663 94.2538 133.625 100.375 133.625V122.542Z" fill="#1E1E1E"/>
<path d="M111.458 133.625C111.458 127.504 106.496 122.542 100.375 122.542V133.625H111.458Z" fill="#1E1E1E"/>
<path d="M133.625 122.542C127.504 122.542 122.542 127.504 122.542 133.625H133.625V122.542Z" fill="#1E1E1E"/>
<path d="M166.875 128.083C166.875 125.023 164.394 122.542 161.333 122.542C158.273 122.542 155.792 125.023 155.792 128.083V133.625H161.333C164.394 133.625 166.875 131.144 166.875 128.083Z" fill="#1E1E1E"/>
<path d="M189.042 122.542H177.958C177.958 128.663 182.921 133.625 189.042 133.625V122.542Z" fill="#1E1E1E"/>
<path d="M200.125 122.542H189.042V133.625H200.125V122.542Z" fill="#1E1E1E"/>
<path d="M222.292 122.542H211.208V133.625H222.292V122.542Z" fill="#1E1E1E"/>
<path d="M11.7083 133.625H6.16667C3.10609 133.625 0.625 136.106 0.625 139.167C0.625 142.227 3.10609 144.708 6.16667 144.708H11.7083V133.625Z" fill="#1E1E1E"/>
<path d="M22.7917 133.625H11.7083V144.708C17.8295 144.708 22.7917 139.746 22.7917 133.625Z" fill="#1E1E1E"/>
<path d="M44.9583 133.625H33.875C33.875 139.746 38.8372 144.708 44.9583 144.708V133.625Z" fill="#1E1E1E"/>
<path d="M56.0417 133.625H44.9583V144.708C51.0795 144.708 56.0417 139.746 56.0417 133.625Z" fill="#1E1E1E"/>
<path d="M78.2083 139.167C78.2083 136.106 75.7272 133.625 72.6667 133.625H67.125V139.167C67.125 142.227 69.6061 144.708 72.6667 144.708C75.7272 144.708 78.2083 142.227 78.2083 139.167Z" fill="#1E1E1E"/>
<path d="M111.458 133.625H100.375L100.375 144.708H111.458V133.625Z" fill="#1E1E1E"/>
<path d="M122.542 133.625H111.458V144.708H122.542L122.542 133.625Z" fill="#1E1E1E"/>
<path d="M133.625 133.625H122.542L122.542 144.708H133.625V133.625Z" fill="#1E1E1E"/>
<path d="M144.708 133.625H133.625V144.708H144.708V133.625Z" fill="#1E1E1E"/>
<path d="M155.792 133.625H144.708V144.708H155.792V133.625Z" fill="#1E1E1E"/>
<path d="M200.125 133.625H189.042V144.708H200.125V133.625Z" fill="#1E1E1E"/>
<path d="M211.208 133.625H200.125V144.708H211.208V133.625Z" fill="#1E1E1E"/>
<path d="M222.292 133.625H211.208V144.708H222.292V133.625Z" fill="#1E1E1E"/>
<path d="M233.375 139.167C233.375 136.106 230.894 133.625 227.833 133.625H222.292V144.708H227.833C230.894 144.708 233.375 142.227 233.375 139.167Z" fill="#1E1E1E"/>
<path d="M111.458 144.708H100.375V155.792H111.458V144.708Z" fill="#1E1E1E"/>
<path d="M133.625 144.708H122.542L122.542 155.792H133.625V144.708Z" fill="#1E1E1E"/>
<path d="M166.875 150.25C166.875 147.189 164.394 144.708 161.333 144.708H155.792V150.25C155.792 153.311 158.273 155.792 161.333 155.792C164.394 155.792 166.875 153.311 166.875 150.25Z" fill="#1E1E1E"/>
<path d="M189.042 144.708H183.5C180.439 144.708 177.958 147.189 177.958 150.25C177.958 153.311 180.439 155.792 183.5 155.792H189.042V144.708Z" fill="#1E1E1E"/>
<path d="M200.125 144.708H189.042V155.792H200.125V144.708Z" fill="#1E1E1E"/>
<path d="M222.292 144.708H211.208V155.792H222.292V144.708Z" fill="#1E1E1E"/>
<path d="M11.7083 155.792C5.58718 155.792 0.625 160.754 0.625 166.875H11.7083V155.792Z" fill="#1E1E1E"/>
<path d="M22.7917 155.792H11.7083V166.875H22.7917V155.792Z" fill="#1E1E1E"/>
<path d="M33.875 155.792H22.7917V166.875H33.875V155.792Z" fill="#1E1E1E"/>
<path d="M44.9583 155.792H33.875V166.875H44.9583V155.792Z" fill="#1E1E1E"/>
<path d="M56.0417 155.792H44.9583V166.875H56.0417V155.792Z" fill="#1E1E1E"/>
<path d="M67.125 155.792H56.0417V166.875H67.125V155.792Z" fill="#1E1E1E"/>
<path d="M78.2083 166.875C78.2083 160.754 73.2461 155.792 67.125 155.792V166.875H78.2083Z" fill="#1E1E1E"/>
<path d="M100.375 155.792C94.2538 155.792 89.2917 160.754 89.2917 166.875H100.375L100.375 155.792Z" fill="#1E1E1E"/>
<path d="M111.458 155.792H100.375L100.375 166.875H111.458V155.792Z" fill="#1E1E1E"/>
<path d="M122.542 155.792H111.458V166.875H122.542L122.542 155.792Z" fill="#1E1E1E"/>
<path d="M133.625 155.792H122.542L122.542 166.875H133.625V155.792Z" fill="#1E1E1E"/>
<path d="M200.125 155.792H189.042C189.042 161.913 194.004 166.875 200.125 166.875V155.792Z" fill="#1E1E1E"/>
<path d="M211.208 155.792H200.125V166.875H211.208V155.792Z" fill="#1E1E1E"/>
<path d="M222.292 155.792H211.208V166.875H222.292V155.792Z" fill="#1E1E1E"/>
<path d="M11.7083 166.875H0.625V177.958H11.7083V166.875Z" fill="#1E1E1E"/>
<path d="M78.2083 166.875H67.125V177.958H78.2083V166.875Z" fill="#1E1E1E"/>
<path d="M100.375 166.875H89.2917V177.958H100.375V166.875Z" fill="#1E1E1E"/>
<path d="M122.542 166.875H111.458L111.458 172.417C111.458 175.477 113.939 177.958 117 177.958C120.061 177.958 122.542 175.477 122.542 172.417V166.875Z" fill="#1E1E1E"/>
<path d="M144.708 166.875H133.625C133.625 172.996 138.587 177.958 144.708 177.958V166.875Z" fill="#1E1E1E"/>
<path d="M155.792 177.958C155.792 171.837 150.829 166.875 144.708 166.875V177.958H155.792Z" fill="#1E1E1E"/>
<path d="M177.958 172.417C177.958 169.356 175.477 166.875 172.417 166.875C169.356 166.875 166.875 169.356 166.875 172.417V177.958H177.958V172.417Z" fill="#1E1E1E"/>
<path d="M211.208 166.875H200.125V172.417C200.125 175.477 202.606 177.958 205.667 177.958C208.727 177.958 211.208 175.477 211.208 172.417V166.875Z" fill="#1E1E1E"/>
<path d="M233.375 172.417C233.375 169.356 230.894 166.875 227.833 166.875H222.292V172.417C222.292 175.477 224.773 177.958 227.833 177.958C230.894 177.958 233.375 175.477 233.375 172.417Z" fill="#1E1E1E"/>
<path d="M11.7083 177.958H0.625V189.042H11.7083V177.958Z" fill="#1E1E1E"/>
<path d="M33.875 177.958C27.7538 177.958 22.7917 182.921 22.7917 189.042H33.875V177.958Z" fill="#1E1E1E"/>
<path d="M44.9583 177.958H33.875V189.042H44.9583V177.958Z" fill="#1E1E1E"/>
<path d="M56.0417 189.042C56.0417 182.921 51.0795 177.958 44.9583 177.958V189.042H56.0417Z" fill="#1E1E1E"/>
<path d="M78.2083 177.958H67.125V189.042H78.2083V177.958Z" fill="#1E1E1E"/>
<path d="M100.375 177.958H89.2917V189.042H100.375V177.958Z" fill="#1E1E1E"/>
<path d="M166.875 177.958H155.792V189.042H166.875V177.958Z" fill="#1E1E1E"/>
<path d="M177.958 177.958H166.875V189.042H177.958V177.958Z" fill="#1E1E1E"/>
<path d="M189.042 189.042C189.042 182.921 184.079 177.958 177.958 177.958V189.042H189.042Z" fill="#1E1E1E"/>
<path d="M11.7083 189.042H0.625V200.125H11.7083V189.042Z" fill="#1E1E1E"/>
<path d="M33.875 189.042H22.7917V200.125H33.875V189.042Z" fill="#1E1E1E"/>
<path d="M44.9583 189.042H33.875V200.125H44.9583V189.042Z" fill="#1E1E1E"/>
<path d="M56.0417 189.042H44.9583V200.125H56.0417V189.042Z" fill="#1E1E1E"/>
<path d="M78.2083 189.042H67.125V200.125H78.2083V189.042Z" fill="#1E1E1E"/>
<path d="M100.375 189.042H89.2917V200.125H100.375V189.042Z" fill="#1E1E1E"/>
<path d="M111.458 194.583C111.458 191.523 108.977 189.042 105.917 189.042H100.375V200.125H105.917C108.977 200.125 111.458 197.644 111.458 194.583Z" fill="#1E1E1E"/>
<path d="M133.625 194.583C133.625 191.523 131.144 189.042 128.083 189.042C125.023 189.042 122.542 191.523 122.542 194.583C122.542 197.644 125.023 200.125 128.083 200.125H133.625V194.583Z" fill="#1E1E1E"/>
<path d="M166.875 189.042H155.792V200.125H166.875V189.042Z" fill="#1E1E1E"/>
<path d="M189.042 189.042H177.958V200.125H189.042V189.042Z" fill="#1E1E1E"/>
<path d="M200.125 194.583C200.125 191.523 197.644 189.042 194.583 189.042H189.042V200.125H194.583C197.644 200.125 200.125 197.644 200.125 194.583Z" fill="#1E1E1E"/>
<path d="M222.292 194.583C222.292 191.523 219.811 189.042 216.75 189.042C213.689 189.042 211.208 191.523 211.208 194.583C211.208 197.644 213.689 200.125 216.75 200.125H222.292V194.583Z" fill="#1E1E1E"/>
<path d="M11.7083 200.125H0.625V211.208H11.7083V200.125Z" fill="#1E1E1E"/>
<path d="M33.875 200.125H22.7917C22.7917 206.246 27.7539 211.208 33.875 211.208V200.125Z" fill="#1E1E1E"/>
<path d="M44.9583 200.125H33.875V211.208H44.9583V200.125Z" fill="#1E1E1E"/>
<path d="M56.0417 200.125H44.9583V211.208C51.0795 211.208 56.0417 206.246 56.0417 200.125Z" fill="#1E1E1E"/>
<path d="M78.2083 200.125H67.125V211.208H78.2083V200.125Z" fill="#1E1E1E"/>
<path d="M100.375 200.125H89.2917V205.667C89.2917 208.727 91.7728 211.208 94.8333 211.208C97.8939 211.208 100.375 208.727 100.375 205.667V200.125Z" fill="#1E1E1E"/>
<path d="M144.708 200.125H133.625C133.625 206.246 138.587 211.208 144.708 211.208V200.125Z" fill="#1E1E1E"/>
<path d="M155.792 200.125H144.708V211.208H155.792V200.125Z" fill="#1E1E1E"/>
<path d="M166.875 200.125H155.792V211.208H166.875V200.125Z" fill="#1E1E1E"/>
<path d="M177.958 200.125H166.875V211.208H177.958V200.125Z" fill="#1E1E1E"/>
<path d="M189.042 200.125H177.958V211.208C184.079 211.208 189.042 206.246 189.042 200.125Z" fill="#1E1E1E"/>
<path d="M233.375 211.208C233.375 205.087 228.413 200.125 222.292 200.125V211.208H233.375Z" fill="#1E1E1E"/>
<path d="M11.7083 211.208H0.625V222.292H11.7083V211.208Z" fill="#1E1E1E"/>
<path d="M78.2083 211.208H67.125V222.292H78.2083V211.208Z" fill="#1E1E1E"/>
<path d="M155.792 211.208H144.708V222.292H155.792V211.208Z" fill="#1E1E1E"/>
<path d="M177.958 211.208H166.875V216.75C166.875 219.811 169.356 222.292 172.417 222.292C175.477 222.292 177.958 219.811 177.958 216.75V211.208Z" fill="#1E1E1E"/>
<path d="M233.375 211.208H222.292V216.75C222.292 219.811 224.773 222.292 227.833 222.292C230.894 222.292 233.375 219.811 233.375 216.75V211.208Z" fill="#1E1E1E"/>
<path d="M11.7083 222.292H0.625C0.625 228.413 5.58718 233.375 11.7083 233.375V222.292Z" fill="#1E1E1E"/>
<path d="M22.7917 222.292H11.7083V233.375H22.7917V222.292Z" fill="#1E1E1E"/>
<path d="M33.875 222.292H22.7917V233.375H33.875V222.292Z" fill="#1E1E1E"/>
<path d="M44.9583 222.292H33.875V233.375H44.9583V222.292Z" fill="#1E1E1E"/>
<path d="M56.0417 222.292H44.9583V233.375H56.0417V222.292Z" fill="#1E1E1E"/>
<path d="M67.125 222.292H56.0417V233.375H67.125V222.292Z" fill="#1E1E1E"/>
<path d="M78.2083 222.292H67.125V233.375C73.2461 233.375 78.2083 228.413 78.2083 222.292Z" fill="#1E1E1E"/>
<path d="M133.625 227.833C133.625 224.773 131.144 222.292 128.083 222.292C125.023 222.292 122.542 224.773 122.542 227.833C122.542 230.894 125.023 233.375 128.083 233.375C131.144 233.375 133.625 230.894 133.625 227.833Z" fill="#1E1E1E"/>
<path d="M155.792 222.292H144.708V227.833C144.708 230.894 147.189 233.375 150.25 233.375C153.311 233.375 155.792 230.894 155.792 227.833V222.292Z" fill="#1E1E1E"/>
</svg>
