<svg width="21" height="20" viewBox="0 0 21 20" fill="none" xmlns="http://www.w3.org/2000/svg">
<path d="M4.78566 0.714355H2.6428C2.26392 0.714355 1.90056 0.864865 1.63265 1.13277C1.36474 1.40068 1.21423 1.76405 1.21423 2.14293V4.28578M16.2142 0.714355H18.3571C18.736 0.714355 19.0993 0.864865 19.3672 1.13277C19.6352 1.40068 19.7857 1.76405 19.7857 2.14293V4.28578M4.78566 19.2858H2.6428C2.26392 19.2858 1.90056 19.1353 1.63265 18.8674C1.36474 18.5995 1.21423 18.2361 1.21423 17.8572V15.7144M16.2142 19.2858H18.3571C18.736 19.2858 19.0993 19.1353 19.3672 18.8674C19.6352 18.5995 19.7857 18.2361 19.7857 17.8572V15.7144M4.78566 13.5715V15.7144H6.92852M10.4999 15.7144V13.5715H8.35709M16.2142 6.42864H14.0714V4.28578M16.2142 11.4286V9.28578H14.0714M14.0714 13.5715V15.7144H16.2142M9.07138 4.28578H6.21423C5.83535 4.28578 5.47199 4.43629 5.20408 4.7042C4.93617 4.97211 4.78566 5.33548 4.78566 5.71436V8.5715C4.78566 8.95038 4.93617 9.31374 5.20408 9.58165C5.47199 9.84956 5.83535 10.0001 6.21423 10.0001H9.07138C9.45026 10.0001 9.81362 9.84956 10.0815 9.58165C10.3494 9.31374 10.4999 8.95038 10.4999 8.5715V5.71436C10.4999 5.33548 10.3494 4.97211 10.0815 4.7042C9.81362 4.43629 9.45026 4.28578 9.07138 4.28578Z" stroke="#49159B" stroke-linecap="round" stroke-linejoin="round"/>
</svg>
