<svg width="23" height="30" viewBox="0 0 23 30" fill="none" xmlns="http://www.w3.org/2000/svg">
<path d="M9.5 2.56059V14.7493C9.5 14.9483 9.42098 15.139 9.28033 15.2797C9.13968 15.4203 8.94891 15.4993 8.75 15.4993C8.55109 15.4993 8.36032 15.4203 8.21967 15.2797C8.07902 15.139 8 14.9483 8 14.7493V2.56059L5.28 5.27934C5.13783 5.41182 4.94978 5.48394 4.75548 5.48052C4.56118 5.47709 4.37579 5.39838 4.23838 5.26096C4.10097 5.12355 4.02225 4.93816 4.01882 4.74386C4.0154 4.54956 4.08752 4.36152 4.22 4.21934L8.22 0.21934C8.36063 0.0788896 8.55125 0 8.75 0C8.94875 0 9.13937 0.0788896 9.28 0.21934L13.28 4.21934C13.3537 4.288 13.4128 4.3708 13.4538 4.4628C13.4948 4.5548 13.5168 4.65411 13.5186 4.75482C13.5204 4.85552 13.5018 4.95555 13.4641 5.04894C13.4264 5.14233 13.3703 5.22716 13.299 5.29838C13.2278 5.3696 13.143 5.42574 13.0496 5.46346C12.9562 5.50118 12.8562 5.51971 12.7555 5.51793C12.6548 5.51615 12.5555 5.49411 12.4635 5.45312C12.3715 5.41213 12.2887 5.35303 12.22 5.27934L9.5 2.56059ZM17.5 14.3356V10.7493C17.5 10.2852 17.3156 9.84009 16.9874 9.5119C16.6592 9.18371 16.2141 8.99934 15.75 8.99934H13.75C13.5511 8.99934 13.3603 9.07836 13.2197 9.21901C13.079 9.35966 13 9.55043 13 9.74934C13 9.94825 13.079 10.139 13.2197 10.2797C13.3603 10.4203 13.5511 10.4993 13.75 10.4993H15.75C15.8163 10.4993 15.8799 10.5257 15.9268 10.5726C15.9737 10.6194 16 10.683 16 10.7493V21.5168C15.5448 20.8 14.8272 20.2897 14.0006 20.0953C13.174 19.9008 12.3042 20.0376 11.5772 20.4763C10.8501 20.915 10.3237 21.6209 10.1105 22.4428C9.89724 23.2648 10.0142 24.1375 10.4363 24.8743C10.4363 24.8868 10.45 24.8981 10.4575 24.9106L13.24 29.1606C13.3552 29.3115 13.5233 29.4131 13.7104 29.4449C13.8976 29.4768 14.0899 29.4364 14.2484 29.3321C14.407 29.2277 14.5201 29.0671 14.565 28.8827C14.6098 28.6982 14.583 28.5036 14.49 28.3381L11.725 24.1081C11.4951 23.7048 11.4348 23.2267 11.5574 22.7789C11.68 22.3312 11.9755 21.9505 12.3787 21.7206C12.782 21.4907 13.2602 21.4304 13.7079 21.553C14.1556 21.6756 14.5363 21.971 14.7663 22.3743C14.7727 22.3868 14.7797 22.3989 14.7875 22.4106L16.125 24.4481C16.2138 24.582 16.3434 24.6839 16.4945 24.7387C16.6456 24.7934 16.8103 24.7982 16.9643 24.7523C17.1184 24.7063 17.2536 24.6121 17.35 24.4836C17.4464 24.355 17.499 24.1988 17.5 24.0381V16.1956C18.5906 17.0934 19.4697 18.2207 20.0747 19.4972C20.6797 20.7737 20.9956 22.168 21 23.5806V28.7493C21 28.9483 21.079 29.139 21.2197 29.2797C21.3603 29.4203 21.5511 29.4993 21.75 29.4993C21.9489 29.4993 22.1397 29.4203 22.2803 29.2797C22.421 29.139 22.5 28.9483 22.5 28.7493V23.5806C22.4944 21.7466 22.0348 19.9426 21.1624 18.3294C20.2899 16.7163 19.0317 15.3442 17.5 14.3356ZM3.75 8.99934H1.75C1.28587 8.99934 0.840752 9.18371 0.512563 9.5119C0.184375 9.84009 0 10.2852 0 10.7493V23.7493C0 23.9483 0.0790175 24.139 0.21967 24.2797C0.360322 24.4203 0.551088 24.4993 0.75 24.4993C0.948912 24.4993 1.13968 24.4203 1.28033 24.2797C1.42098 24.139 1.5 23.9483 1.5 23.7493V10.7493C1.5 10.683 1.52634 10.6194 1.57322 10.5726C1.62011 10.5257 1.6837 10.4993 1.75 10.4993H3.75C3.94891 10.4993 4.13968 10.4203 4.28033 10.2797C4.42098 10.139 4.5 9.94825 4.5 9.74934C4.5 9.55043 4.42098 9.35966 4.28033 9.21901C4.13968 9.07836 3.94891 8.99934 3.75 8.99934Z" fill="#49159B"/>
</svg>
