<svg width="26" height="30" viewBox="0 0 26 30" fill="none" xmlns="http://www.w3.org/2000/svg">
<path d="M13 28.3334C11.9093 28.3334 10.8667 27.9001 8.78267 27.0347C3.59467 24.8801 1 23.8027 1 21.9907V9.32675M13 28.3334C14.0907 28.3334 15.1333 27.9001 17.2173 27.0347C22.4053 24.8801 25 23.8027 25 21.9907V9.32675M13 28.3334V15.2254M1 9.32675C1 10.1307 2.06933 10.6401 4.20667 11.6561L8.1 13.5094C10.5067 14.6534 11.7067 15.2267 13 15.2267C14.2933 15.2267 15.4933 14.6534 17.9 13.5094L21.7933 11.6561C23.9307 10.6401 25 10.1307 25 9.32675M1 9.32675C1 8.52141 2.06933 8.01208 4.20667 6.99608L7 5.66675M25 9.32675C25 8.52141 23.9307 8.01342 21.7933 6.99742L19 5.66675M5 16.5361L7.66667 17.8467M13.0053 1.66675V11.0001M13.0053 11.0001C13.356 11.0054 13.7013 10.7601 13.9573 10.4601L15.6667 8.41608M13.0053 11.0001C12.6667 10.9961 12.324 10.7521 12.0533 10.4601L10.3333 8.41608" stroke="#49159B" stroke-width="1.5" stroke-linecap="round" stroke-linejoin="round"/>
</svg>
