<svg width="30" height="19" viewBox="0 0 30 19" fill="none" xmlns="http://www.w3.org/2000/svg">
<path d="M15 14.25C15.9395 14.25 16.8578 13.9714 17.639 13.4495C18.4201 12.9275 19.0289 12.1857 19.3884 11.3177C19.7479 10.4498 19.842 9.49473 19.6587 8.57332C19.4755 7.65191 19.0231 6.80554 18.3588 6.14124C17.6945 5.47694 16.8481 5.02455 15.9267 4.84127C15.0053 4.65799 14.0502 4.75206 13.1823 5.11157C12.3143 5.47109 11.5725 6.07991 11.0505 6.86104C10.5286 7.64217 10.25 8.56054 10.25 9.5C10.25 10.7598 10.7504 11.968 11.6412 12.8588C12.532 13.7496 13.7402 14.25 15 14.25ZM15 6.25C15.6428 6.25 16.2711 6.44061 16.8056 6.79772C17.3401 7.15484 17.7566 7.66242 18.0026 8.25628C18.2486 8.85014 18.313 9.5036 18.1876 10.134C18.0621 10.7645 17.7526 11.3436 17.2981 11.7981C16.8436 12.2526 16.2645 12.5621 15.634 12.6876C15.0036 12.813 14.3501 12.7486 13.7563 12.5026C13.1624 12.2566 12.6548 11.8401 12.2977 11.3056C11.9406 10.7711 11.75 10.1428 11.75 9.5C11.75 8.63805 12.0924 7.8114 12.7019 7.2019C13.3114 6.59241 14.138 6.25 15 6.25ZM29 0.75H1C0.801088 0.75 0.610322 0.829018 0.46967 0.96967C0.329018 1.11032 0.25 1.30109 0.25 1.5V17.5C0.25 17.6989 0.329018 17.8897 0.46967 18.0303C0.610322 18.171 0.801088 18.25 1 18.25H29C29.1989 18.25 29.3897 18.171 29.5303 18.0303C29.671 17.8897 29.75 17.6989 29.75 17.5V1.5C29.75 1.30109 29.671 1.11032 29.5303 0.96967C29.3897 0.829018 29.1989 0.75 29 0.75ZM1.75 7.1025C2.91454 6.7927 3.97659 6.18079 4.82869 5.32869C5.68079 4.4766 6.2927 3.41454 6.6025 2.25H23.3975C23.7073 3.41454 24.3192 4.4766 25.1713 5.32869C26.0234 6.18079 27.0855 6.7927 28.25 7.1025V11.8975C27.0855 12.2073 26.0234 12.8192 25.1713 13.6713C24.3192 14.5234 23.7073 15.5855 23.3975 16.75H6.6025C6.2927 15.5855 5.68079 14.5234 4.82869 13.6713C3.97659 12.8192 2.91454 12.2073 1.75 11.8975V7.1025ZM28.25 5.53625C27.4904 5.27088 26.8004 4.83757 26.2314 4.2686C25.6624 3.69962 25.2291 3.00963 24.9638 2.25H28.25V5.53625ZM5.03625 2.25C4.77088 3.00963 4.33757 3.69962 3.7686 4.2686C3.19962 4.83757 2.50963 5.27088 1.75 5.53625V2.25H5.03625ZM1.75 13.4638C2.50963 13.7291 3.19962 14.1624 3.7686 14.7314C4.33757 15.3004 4.77088 15.9904 5.03625 16.75H1.75V13.4638ZM24.9638 16.75C25.2291 15.9904 25.6624 15.3004 26.2314 14.7314C26.8004 14.1624 27.4904 13.7291 28.25 13.4638V16.75H24.9638Z" fill="#49159B"/>
</svg>
