<svg width="33" height="32" viewBox="0 0 33 32" fill="none" xmlns="http://www.w3.org/2000/svg">
<path d="M7.35686 1.14307H3.92829C3.32208 1.14307 2.7407 1.38388 2.31205 1.81254C1.88339 2.24119 1.64258 2.82257 1.64258 3.42878V6.85735M25.6426 1.14307H29.0712C29.6774 1.14307 30.2587 1.38388 30.6874 1.81254C31.116 2.24119 31.3569 2.82257 31.3569 3.42878V6.85735M7.35686 30.8574H3.92829C3.32208 30.8574 2.7407 30.6165 2.31205 30.1879C1.88339 29.7592 1.64258 29.1778 1.64258 28.5716V25.1431M25.6426 30.8574H29.0712C29.6774 30.8574 30.2587 30.6165 30.6874 30.1879C31.116 29.7592 31.3569 29.1778 31.3569 28.5716V25.1431M7.35686 21.7145V25.1431H10.7854M16.4997 25.1431V21.7145H13.0712M25.6426 10.2859H22.214V6.85735M25.6426 18.2859V14.8574H22.214M22.214 21.7145V25.1431H25.6426M14.214 6.85735H9.64258C9.03637 6.85735 8.45499 7.09817 8.02633 7.52682C7.59768 7.95548 7.35686 8.53686 7.35686 9.14307V13.7145C7.35686 14.3207 7.59768 14.9021 8.02633 15.3307C8.45499 15.7594 9.03637 16.0002 9.64258 16.0002H14.214C14.8202 16.0002 15.4016 15.7594 15.8303 15.3307C16.2589 14.9021 16.4997 14.3207 16.4997 13.7145V9.14307C16.4997 8.53686 16.2589 7.95548 15.8303 7.52682C15.4016 7.09817 14.8202 6.85735 14.214 6.85735Z" stroke="#49159B" stroke-width="1.71429" stroke-linecap="round" stroke-linejoin="round"/>
</svg>
