<svg width="323" height="302" viewBox="0 0 323 302" fill="none" xmlns="http://www.w3.org/2000/svg">
<mask id="mask0_633_1468" style="mask-type:alpha" maskUnits="userSpaceOnUse" x="0" y="0" width="323" height="302">
<path d="M161.5 0C250.694 0 323 67.605 323 151C323 234.395 250.694 302 161.5 302C72.306 302 0 234.395 0 151C0 67.605 72.306 0 161.5 0ZM161.5 1C72.7939 1 1 68.2195 1 151C1 233.78 72.7939 301 161.5 301C250.206 301 322 233.78 322 151C322 68.2195 250.206 1 161.5 1ZM161.5 48.1562C222.249 48.1562 271.495 94.2009 271.495 151C271.495 207.799 222.249 253.844 161.5 253.844C100.751 253.844 51.5049 207.799 51.5049 151C51.505 94.2011 100.751 48.1564 161.5 48.1562ZM161.5 49.1562C101.239 49.1564 52.505 94.8156 52.5049 151C52.5049 207.184 101.239 252.844 161.5 252.844C221.761 252.844 270.495 207.185 270.495 151C270.495 94.8155 221.761 49.1562 161.5 49.1562ZM162.442 92.9873C196.418 93.3898 223.827 119.266 223.827 151.128C223.827 183.241 195.984 209.274 161.639 209.274L160.835 209.27C126.859 208.867 99.4495 182.99 99.4492 151.128C99.4494 119.015 127.293 92.9825 161.639 92.9824L162.442 92.9873ZM161.639 93.9824C127.781 93.9825 100.449 119.63 100.449 151.128C100.45 182.626 127.781 208.274 161.639 208.274C195.497 208.274 222.827 182.626 222.827 151.128C222.827 119.63 195.497 93.9826 161.639 93.9824ZM162.076 130.131C174.141 130.417 183.827 139.651 183.827 151C183.827 162.529 173.831 171.876 161.5 171.876L160.924 171.869C148.859 171.584 139.172 162.35 139.172 151C139.172 139.47 149.169 130.124 161.5 130.124L162.076 130.131ZM161.5 131.124C149.657 131.124 140.172 140.085 140.172 151C140.172 161.915 149.657 170.876 161.5 170.876C173.343 170.876 182.827 161.915 182.827 151C182.827 140.085 173.343 131.124 161.5 131.124Z" fill="#49159B"/>
</mask>
<g mask="url(#mask0_633_1468)">
<rect y="-19.5542" width="323" height="224.508" fill="#49159B"/>
</g>
<g clip-path="url(#clip0_633_1468)">
<path d="M219.319 103.523H217.337C216.946 103.523 216.629 103.841 216.629 104.232V130.88C216.629 131.271 216.946 131.589 217.337 131.589H219.319C219.71 131.589 220.027 131.271 220.027 130.88V104.232C220.027 103.841 219.71 103.523 219.319 103.523Z" fill="#3F3D56"/>
<path d="M206.41 51H116.828C110.171 51 104.775 56.4074 104.775 63.0777V270.458C104.775 277.128 110.171 282.535 116.828 282.535H206.41C213.066 282.535 218.462 277.128 218.462 270.458V63.0777C218.462 56.4074 213.066 51 206.41 51Z" fill="#3F3D56"/>
<path d="M202.639 57.0308H189.598V58.6028C189.598 59.5814 189.405 60.5503 189.032 61.4543C188.658 62.3583 188.11 63.1797 187.419 63.8714C186.729 64.5632 185.909 65.1118 185.006 65.4859C184.104 65.86 183.137 66.0523 182.16 66.0517H140.686C139.71 66.0523 138.743 65.86 137.841 65.4859C136.938 65.1118 136.118 64.5632 135.428 63.8714C134.737 63.1797 134.189 62.3583 133.815 61.4543C133.441 60.5503 133.249 59.5814 133.249 58.6028V57.0308H121.039C118.644 57.0308 116.348 57.984 114.654 59.6808C112.961 61.3777 112.01 63.679 112.01 66.0787V267.472C112.01 269.872 112.961 272.173 114.654 273.87C116.348 275.567 118.644 276.52 121.039 276.52H202.639C205.034 276.52 207.33 275.567 209.023 273.87C210.717 272.173 211.668 269.872 211.668 267.472V66.0942C211.67 64.9047 211.438 63.7265 210.985 62.6269C210.532 61.5274 209.868 60.5281 209.029 59.6863C208.19 58.8445 207.194 58.1766 206.098 57.721C205.001 57.2653 203.826 57.0308 202.639 57.0308V57.0308Z" fill="white"/>
<path d="M165.332 57.9146H151.85C151.189 57.9146 150.653 58.4513 150.653 59.1133V59.9444C150.653 60.6065 151.189 61.1432 151.85 61.1432H165.332C165.993 61.1432 166.529 60.6065 166.529 59.9444V59.1133C166.529 58.4513 165.993 57.9146 165.332 57.9146Z" fill="#E6E8EC"/>
<path d="M170.759 61.3628C171.77 61.3628 172.589 60.5419 172.589 59.5293C172.589 58.5167 171.77 57.6958 170.759 57.6958C169.749 57.6958 168.93 58.5167 168.93 59.5293C168.93 60.5419 169.749 61.3628 170.759 61.3628Z" fill="#E6E8EC"/>
<path d="M275.011 281.96C282.693 281.96 288.92 280.905 288.92 279.603C288.92 278.301 282.693 277.246 275.011 277.246C267.33 277.246 261.103 278.301 261.103 279.603C261.103 280.905 267.33 281.96 275.011 281.96Z" fill="#49159B"/>
<path d="M280.763 275.749C281.397 275.229 281.859 274.53 282.088 273.742C282.261 272.948 281.922 272.007 281.16 271.7C280.309 271.374 279.398 271.967 278.711 272.563C278.024 273.159 277.231 273.842 276.328 273.714C276.793 273.293 277.141 272.759 277.338 272.163C277.535 271.567 277.575 270.93 277.453 270.314C277.413 270.058 277.304 269.819 277.139 269.62C276.668 269.114 275.81 269.329 275.247 269.731C273.448 270.996 272.947 273.449 272.936 275.648C272.753 274.854 272.908 274.026 272.901 273.221C272.895 272.417 272.677 271.487 271.988 271.062C271.564 270.834 271.086 270.721 270.605 270.736C269.795 270.705 268.896 270.788 268.343 271.381C267.651 272.116 267.837 273.35 268.432 274.154C269.028 274.958 269.937 275.474 270.774 276.033C271.443 276.433 272.014 276.979 272.444 277.631C272.495 277.722 272.537 277.818 272.567 277.918H277.621C278.761 277.34 279.817 276.611 280.762 275.75L280.763 275.749Z" fill="#49159B"/>
<path d="M85.9075 283C90.9769 283 95.0864 282.304 95.0864 281.445C95.0864 280.586 90.9769 279.889 85.9075 279.889C80.8381 279.889 76.7285 280.586 76.7285 281.445C76.7285 282.304 80.8381 283 85.9075 283Z" fill="#49159B"/>
<path d="M89.7038 278.901C90.1221 278.558 90.4269 278.096 90.578 277.576C90.6445 277.316 90.6201 277.04 90.5089 276.795C90.3976 276.55 90.2062 276.35 89.9662 276.229C89.4045 276.014 88.8042 276.405 88.3501 276.799C87.896 277.192 87.373 277.643 86.7774 277.558C87.084 277.28 87.3135 276.927 87.4435 276.534C87.5735 276.141 87.5996 275.721 87.5192 275.314C87.4925 275.146 87.4207 274.988 87.3115 274.857C87.0024 274.523 86.4348 274.665 86.063 274.93C84.876 275.766 84.5449 277.382 84.5381 278.835C84.4172 278.311 84.5198 277.764 84.5152 277.234C84.5106 276.703 84.3668 276.09 83.9124 275.809C83.6322 275.658 83.3172 275.584 82.9993 275.594C82.4651 275.573 81.8716 275.628 81.5063 276.019C81.0497 276.504 81.173 277.319 81.5656 277.849C81.9582 278.38 82.5585 278.721 83.1112 279.088C83.553 279.352 83.9299 279.712 84.2138 280.142C84.248 280.202 84.2756 280.265 84.296 280.331H87.6311C88.3831 279.95 89.0803 279.468 89.7038 278.899V278.901Z" fill="#49159B"/>
<path d="M33.9973 283C39.0667 283 43.1763 282.304 43.1763 281.445C43.1763 280.586 39.0667 279.889 33.9973 279.889C28.9279 279.889 24.8184 280.586 24.8184 281.445C24.8184 282.304 28.9279 283 33.9973 283Z" fill="#49159B"/>
<path d="M37.7926 278.901C38.2109 278.558 38.5157 278.096 38.6668 277.576C38.7334 277.316 38.709 277.04 38.5978 276.795C38.4865 276.55 38.295 276.35 38.0551 276.229C37.4934 276.014 36.8931 276.405 36.439 276.799C35.9849 277.192 35.4619 277.643 34.8662 277.558C35.1728 277.28 35.4023 276.927 35.5323 276.534C35.6624 276.141 35.6885 275.721 35.6081 275.314C35.5813 275.146 35.5096 274.988 35.4004 274.857C35.0912 274.523 34.5237 274.665 34.1518 274.93C32.9648 275.766 32.6338 277.382 32.627 278.835C32.5061 278.311 32.6087 277.764 32.6041 277.234C32.5994 276.703 32.4557 276.09 32.0013 275.809C31.721 275.658 31.4061 275.584 31.0882 275.594C30.554 275.573 29.9605 275.628 29.5951 276.019C29.1386 276.504 29.2619 277.319 29.6545 277.849C30.0471 278.38 30.6474 278.721 31.2001 279.088C31.6419 279.352 32.0187 279.712 32.3027 280.142C32.3369 280.202 32.3645 280.265 32.3849 280.331H35.72C36.472 279.95 37.1692 279.468 37.7926 278.899V278.901Z" fill="#49159B"/>
<path d="M299 282.112H20V282.676H299V282.112Z" fill="#2F2E41"/>
<path d="M285.381 66.6503C285.381 66.6503 256.256 64.8893 259.687 85.3406C259.687 85.3406 258.995 88.9559 262.275 90.5955C262.275 90.5955 262.327 89.0807 265.263 89.5971C266.309 89.7707 267.371 89.8219 268.428 89.7495C269.855 89.6555 271.212 89.0995 272.295 88.1653V88.1653C272.295 88.1653 280.483 84.7753 283.665 71.3677C283.665 71.3677 286.021 68.4423 285.927 67.6899L281.012 69.7938C281.012 69.7938 282.693 73.3468 281.358 76.2989C281.358 76.2989 281.199 69.9208 280.255 70.0596C280.065 70.0875 277.702 71.29 277.702 71.29C277.702 71.29 280.591 77.4772 278.411 81.9769C278.411 81.9769 279.238 74.3511 276.799 71.7373L273.34 73.7616C273.34 73.7616 276.716 80.1536 274.426 85.3703C274.426 85.3703 275.014 77.37 272.61 74.2538L269.476 76.7044C269.476 76.7044 272.648 83.0025 270.715 87.3293C270.715 87.3293 270.462 78.0187 268.798 77.3152C268.798 77.3152 266.055 79.7416 265.637 80.7328C265.637 80.7328 267.809 85.3084 266.46 87.7208C266.46 87.7208 265.633 81.5162 264.955 81.4815C264.955 81.4815 262.222 85.5924 261.939 88.4141C261.939 88.4141 262.056 84.2233 264.294 81.0934C264.294 81.0934 261.651 81.5475 260.109 83.2618C260.109 83.2618 260.534 80.3571 264.969 80.1006C264.969 80.1006 267.227 76.981 267.829 76.7939C267.829 76.7939 263.422 76.4222 260.748 77.612C260.748 77.612 263.101 74.8702 268.639 76.118L271.735 73.5841C271.735 73.5841 265.93 72.7902 263.468 73.6674C263.468 73.6674 266.301 71.241 272.568 73.0089L275.938 70.9914C275.938 70.9914 270.988 69.9236 268.041 70.2981C268.041 70.2981 271.154 68.617 276.927 70.4403L279.348 69.3561C279.348 69.3561 275.723 68.6421 274.661 68.5278C273.599 68.4135 273.544 68.1223 273.544 68.1223C275.84 67.7386 278.198 68.0014 280.355 68.8816C280.355 68.8816 285.468 66.9728 285.381 66.6503Z" fill="#49159B"/>
<path d="M245.475 55.8232C245.475 55.8232 232.33 55.0293 233.866 64.2705C233.866 64.2705 233.557 65.9033 235.035 66.6449C235.035 66.6449 235.059 65.9516 236.387 66.1907C236.859 66.2703 237.339 66.2936 237.816 66.2601C238.461 66.2173 239.075 65.9641 239.563 65.539V65.539C239.563 65.539 243.264 64.0069 244.703 57.9479C244.703 57.9479 245.765 56.6274 245.723 56.2876L243.502 57.2373C243.502 57.2373 244.26 58.8422 243.665 60.1767C243.665 60.1767 243.592 57.2958 243.167 57.3621C243.08 57.3621 242.011 57.9197 242.011 57.9197C242.011 57.9197 243.319 60.7169 242.333 62.7483C242.333 62.7483 242.706 59.3028 241.603 58.1208L240.04 59.05C240.04 59.05 241.565 61.9374 240.531 64.2947C240.531 64.2947 240.797 60.6794 239.711 59.2721L238.296 60.3814C238.296 60.3814 239.728 63.2272 238.857 65.1828C238.857 65.1828 238.739 60.9746 237.988 60.6559C237.988 60.6559 236.75 61.7512 236.56 62.2019C236.56 62.2019 237.542 64.2817 236.933 65.3596C236.933 65.3596 236.56 62.5553 236.242 62.5408C236.242 62.5408 235.007 64.3994 234.879 65.6604C234.941 64.484 235.308 63.3442 235.944 62.3537C235.232 62.489 234.574 62.8299 234.052 63.3347C234.052 63.3347 234.246 62.021 236.249 61.9067C236.249 61.9067 237.286 60.496 237.542 60.4093C237.542 60.4093 235.55 60.2429 234.343 60.781C234.343 60.781 235.404 59.5435 237.906 60.1051L239.289 58.9611C239.289 58.9611 236.665 58.6111 235.552 58.9971C235.552 58.9971 236.832 57.9017 239.665 58.6991L241.187 57.7874C241.187 57.7874 238.949 57.3058 237.617 57.4777C237.617 57.4777 239.025 56.7184 241.633 57.5396L242.723 57.0508C242.723 57.0508 241.085 56.7284 240.602 56.6763C240.12 56.6243 240.097 56.4926 240.097 56.4926C241.136 56.3195 242.202 56.4395 243.176 56.8393C243.176 56.8393 245.515 55.9676 245.475 55.8232Z" fill="#49159B"/>
<path d="M64.6953 196.902C64.6953 196.902 51.551 196.108 53.0867 205.349C53.0867 205.349 52.7776 206.982 54.2558 207.723C54.2558 207.723 54.2799 207.03 55.6082 207.269C56.0799 207.349 56.5594 207.372 57.0366 207.339C57.6818 207.296 58.2954 207.043 58.7834 206.618V206.618C58.7834 206.618 62.4845 205.086 63.9235 199.027C63.9235 199.027 64.9853 197.706 64.9436 197.366L62.7229 198.316C62.7229 198.316 63.4805 199.921 62.8854 201.255C62.8854 201.255 62.8128 198.374 62.3875 198.441C62.3009 198.441 61.232 198.998 61.232 198.998C61.232 198.998 62.5395 201.795 61.5538 203.827C61.5538 203.827 61.9272 200.381 60.8239 199.199L59.2604 200.129C59.2604 200.129 60.7859 203.016 59.7516 205.373C59.7516 205.373 60.0181 201.758 58.9318 200.351L57.517 201.46C57.517 201.46 58.9491 204.306 58.0774 206.261C58.0774 206.261 57.96 202.053 57.2091 201.734C57.2091 201.734 55.9708 202.83 55.7804 203.281C55.7804 203.281 56.7627 205.36 56.1541 206.438C56.1541 206.438 55.7804 203.634 55.4623 203.619C55.4623 203.619 54.2274 205.478 54.0994 206.739C54.1612 205.563 54.5285 204.423 55.1649 203.432C54.4523 203.568 53.7946 203.909 53.2728 204.413C53.2728 204.413 53.4666 203.1 55.4694 202.985C55.4694 202.985 56.5071 201.575 56.7631 201.488C56.7631 201.488 54.7708 201.322 53.5634 201.86C53.5634 201.86 54.6252 200.622 57.1263 201.184L58.5099 200.04C58.5099 200.04 55.8855 199.69 54.7726 200.076C54.7726 200.076 56.0524 198.98 58.8855 199.778L60.4076 198.866C60.4076 198.866 58.1695 198.384 56.8379 198.556C56.8379 198.556 58.2456 197.797 60.8539 198.618L61.9436 198.129C61.9436 198.129 60.3052 197.807 59.823 197.755C59.3408 197.703 59.3179 197.571 59.3179 197.571C60.3563 197.398 61.4223 197.518 62.3964 197.918C62.3964 197.918 64.7358 197.046 64.6953 196.902Z" fill="#49159B"/>
<path d="M162 139C169.426 139 176.548 141.95 181.799 147.201C187.05 152.452 190 159.574 190 167C190 174.426 187.05 181.548 181.799 186.799C176.548 192.05 169.426 195 162 195C154.574 195 147.452 192.05 142.201 186.799C136.95 181.548 134 174.426 134 167C134 159.574 136.95 152.452 142.201 147.201C147.452 141.95 154.574 139 162 139ZM158.512 172.524L152.292 166.3C152.069 166.077 151.804 165.9 151.513 165.779C151.222 165.659 150.909 165.597 150.594 165.597C150.279 165.597 149.966 165.659 149.675 165.779C149.384 165.9 149.119 166.077 148.896 166.3C148.446 166.75 148.193 167.361 148.193 167.998C148.193 168.635 148.446 169.246 148.896 169.696L156.816 177.616C157.038 177.84 157.303 178.018 157.594 178.139C157.886 178.261 158.198 178.323 158.514 178.323C158.83 178.323 159.142 178.261 159.434 178.139C159.725 178.018 159.99 177.84 160.212 177.616L176.612 161.212C176.838 160.99 177.018 160.725 177.141 160.433C177.264 160.142 177.328 159.828 177.33 159.511C177.331 159.195 177.27 158.881 177.15 158.588C177.029 158.295 176.852 158.028 176.628 157.804C176.404 157.58 176.138 157.402 175.845 157.282C175.552 157.161 175.238 157.099 174.921 157.1C174.605 157.101 174.291 157.165 173.999 157.288C173.707 157.411 173.442 157.59 173.22 157.816L158.512 172.524Z" fill="#49159B"/>
</g>
<defs>
<clipPath id="clip0_633_1468">
<rect width="279" height="232" fill="white" transform="translate(20 51)"/>
</clipPath>
</defs>
</svg>
