<svg width="27" height="27" viewBox="0 0 27 27" fill="none" xmlns="http://www.w3.org/2000/svg">
<path d="M22.0833 16.345V21.0217C22.0833 23.449 20.1427 25.417 17.748 25.417C15.3533 25.417 13.4127 23.449 13.4127 21.0217L13.4207 6.17899C13.4207 3.54899 11.48 1.41699 9.08533 1.41699C6.69067 1.41699 4.75 3.54899 4.75 6.17899V16.3457" stroke="#49159B" stroke-width="1.5" stroke-linecap="round" stroke-linejoin="round"/>
<path d="M26.0833 18.0834L22.0833 14.0834L18.0833 18.0834M26.0833 4.56803C26.0833 7.53803 22.0833 10.0834 22.0833 10.0834C22.0833 10.0834 18.0833 7.53803 18.0833 4.56803C18.0833 3.55536 18.5047 2.58469 19.2547 1.86803C20.0193 1.14647 21.032 0.746231 22.0833 0.750027C23.1347 0.746231 24.1473 1.14647 24.912 1.86803C25.28 2.21522 25.5736 2.63359 25.775 3.09773C25.9763 3.56187 26.0812 4.0621 26.0833 4.56803ZM8.75 20.568C8.75 23.538 4.75 26.0834 4.75 26.0834C4.75 26.0834 0.75 23.538 0.75 20.568C0.75 19.5554 1.17133 18.5847 1.92133 17.868C2.686 17.1465 3.69864 16.7462 4.75 16.75C5.80136 16.7462 6.814 17.1465 7.57867 17.868C7.94675 18.2153 8.24039 18.6338 8.44175 19.098C8.64311 19.5623 8.74799 20.062 8.75 20.568Z" stroke="#49159B" stroke-width="1.5" stroke-linecap="round" stroke-linejoin="round"/>
<path d="M22.0833 6.08366C22.8197 6.08366 23.4167 5.48671 23.4167 4.75033C23.4167 4.01395 22.8197 3.41699 22.0833 3.41699C21.347 3.41699 20.75 4.01395 20.75 4.75033C20.75 5.48671 21.347 6.08366 22.0833 6.08366Z" fill="#49159B"/>
<path d="M4.74935 22.0837C5.48573 22.0837 6.08268 21.4867 6.08268 20.7503C6.08268 20.0139 5.48573 19.417 4.74935 19.417C4.01297 19.417 3.41602 20.0139 3.41602 20.7503C3.41602 21.4867 4.01297 22.0837 4.74935 22.0837Z" fill="#49159B"/>
</svg>
